<svg width="247" height="47" viewBox="0 0 247 47" fill="none" xmlns="http://www.w3.org/2000/svg">
<path d="M215.463 38.5106H219.663V12.8145H215.463V38.5106ZM212.33 14.8765H198.664V32.771H200.973C205.676 32.771 209.554 32.6535 213.693 32.0836L213.336 28.8701C209.724 29.3577 206.56 29.5281 202.743 29.5575V25.1397H211.142V21.9849H202.743V18.1428H212.33V14.8765Z" fill="#8E43E7"/>
<path d="M225.881 35.2442L227.596 38.399C231.886 37.7939 234.844 36.0491 236.498 33.7227C238.128 36.0432 241.086 37.7939 245.401 38.399L247 35.2442C240.934 34.5275 238.51 31.5431 238.54 28.9347V28.4765H234.456V28.9347C234.426 31.5431 232.002 34.5275 225.875 35.2442M222.505 26.7552L224.457 29.5633C228.511 27.8714 231.111 25.6919 232.65 22.966H236.347V27.6129H240.249V13.2139H236.347V19.7525H233.923C234.335 18.2016 234.517 16.5097 234.517 14.7061H224.045V17.9196H230.432C230.341 18.4953 230.256 19.0652 230.074 19.6115L222.972 19.87L223.445 23.0835L228.59 22.5665C227.317 24.1703 225.366 25.5509 222.493 26.7552M245.867 12.8145H241.904V29.8512H245.867V12.8145Z" fill="#8E43E7"/>
<path d="M18.0251 27.772C16.8737 25.8274 16.3646 23.8829 16.4374 21.8385C16.5161 19.7118 17.4373 16.8097 18.7645 15.8345C19.0008 15.6641 19.2917 15.5055 19.7401 15.5055C19.9401 15.5055 20.1644 15.5349 20.431 15.6112C21.1037 15.7992 21.4673 16.1517 21.6915 16.8273C22.3642 18.8952 21.2491 23.5128 18.7887 27.7661C18.619 28.0598 18.1948 28.0657 18.0251 27.7778V27.772ZM21.2309 4.56085C22.2248 4.56085 23.0369 5.37157 23.0369 6.37027C23.0369 7.36898 22.2309 8.1797 21.2309 8.1797C20.231 8.1797 19.4311 7.36898 19.4311 6.37027C19.4311 5.37157 20.2371 4.56085 21.2309 4.56085ZM28.2365 42.4353H27.6002C27.382 42.4353 27.1941 42.2767 27.1638 42.0593C26.776 39.2806 25.2852 35.8556 21.8915 32.3601C21.6733 32.1428 21.6309 31.7962 21.8006 31.5377C24.7761 26.9319 27.5275 20.0114 26.0306 15.4056C25.6488 14.2189 25.0125 13.2496 24.1641 12.5153C23.9944 12.3684 24.0247 12.0981 24.2186 11.9924C26.3518 10.8586 27.7699 8.53218 27.582 5.9003C27.3456 2.76318 24.7883 0.225293 21.6552 0.0138021C17.9585 -0.227062 14.8738 2.71618 14.8738 6.37027C14.8738 8.25019 15.6859 9.94212 16.9828 11.1053C17.1464 11.2522 17.1161 11.5224 16.9161 11.6223C16.6313 11.775 16.3464 11.9454 16.0798 12.1451C12.9709 14.4245 11.9771 19.2007 11.8862 21.6622C11.8437 22.7608 11.9225 23.8359 12.1165 24.8992C12.5043 27.02 13.3709 29.0762 14.7284 31.0794C15.1405 31.6845 15.601 32.2603 16.098 32.8007L18.619 35.5619C21.1703 38.4229 22.546 41.231 22.7399 43.81C22.752 43.904 22.7581 43.998 22.7642 44.0979C22.8369 45.7252 24.1701 47 25.7942 47H28.2971C29.5697 47 30.5939 45.9543 30.5757 44.6736C30.5515 43.4164 29.4788 42.4353 28.2244 42.4353H28.2365Z" fill="#8E43E7"/>
<path d="M12.9825 34.645C12.9158 34.551 12.7825 34.5275 12.6855 34.5921C8.98277 36.9244 6.23146 35.5673 5.05578 35.1914C3.56498 34.7096 1.9651 35.4322 1.3409 36.8774L0.189471 39.5445C-0.313523 40.7019 0.219772 42.0413 1.37726 42.5465C2.52869 43.0459 3.86799 42.5172 4.37099 41.3598L4.86792 40.2084C4.95276 40.0145 5.15275 39.9088 5.35879 39.9499C7.78892 40.4316 11.3341 41.0367 15.552 38.1816C15.6611 38.1052 15.6793 37.9466 15.5884 37.8526C15.1884 37.412 14.7945 36.9538 14.4006 36.4779C13.9036 35.8669 13.4309 35.2618 12.9825 34.6509V34.645Z" fill="#8E43E7"/>
<path d="M45.4345 36.0438H40.8288V17.8791H45.4345V36.0379V36.0438ZM41.1439 14.9476C40.6045 14.4365 40.3379 13.7961 40.3379 13.0324C40.3379 12.2687 40.6045 11.6284 41.1439 11.1114C41.6772 10.6003 42.3559 10.3418 43.168 10.3418C43.9801 10.3418 44.6527 10.6003 45.1921 11.1114C45.7314 11.6225 45.9981 12.2628 45.9981 13.0324C45.9981 13.802 45.7314 14.4365 45.1921 14.9535C44.6588 15.4646 43.9801 15.7231 43.168 15.7231C42.3559 15.7231 41.6832 15.4646 41.1439 14.9535V14.9476Z" fill="white"/>
<path d="M65.3303 19.6704C66.6696 21.0333 67.3362 22.9426 67.3362 25.3924V36.0492H62.7305V26.0151C62.7305 24.5699 62.3729 23.4655 61.6457 22.6841C60.9246 21.9087 59.9367 21.5209 58.6884 21.5209C57.44 21.5209 56.4097 21.9087 55.6765 22.6841C54.9432 23.4596 54.5735 24.5699 54.5735 26.0151V36.0492H49.9678V17.8845H54.5735V20.1463C55.1856 19.359 55.9734 18.7422 56.9248 18.2898C57.8763 17.8434 58.9247 17.6201 60.064 17.6201C62.2335 17.6201 63.991 18.3016 65.3242 19.6704H65.3303Z" fill="white"/>
<path d="M77.0753 21.6505V30.4333C77.0753 31.0443 77.2207 31.4907 77.5177 31.761C77.8146 32.0312 78.3116 32.1722 79.0146 32.1722H81.1538V36.0378H78.257C74.3785 36.0378 72.4332 34.1579 72.4332 30.398V21.6447H70.2637V17.8731H72.4332V13.3789H77.0692V17.8672H81.1477V21.6388H77.0692L77.0753 21.6505Z" fill="white"/>
<path d="M94.8232 25.2574C94.799 24.0766 94.3747 23.1366 93.5384 22.4199C92.7021 21.7091 91.684 21.3566 90.4781 21.3566C89.3388 21.3566 88.3752 21.7032 87.5995 22.3905C86.8177 23.0779 86.345 24.0355 86.1693 25.2574H94.8171H94.8232ZM99.4592 28.3358H86.139C86.2481 29.6458 86.7086 30.6739 87.5207 31.4141C88.3328 32.1544 89.3327 32.5303 90.5144 32.5303C92.2234 32.5303 93.4415 31.796 94.1687 30.3332H99.138C98.6108 32.0839 97.5988 33.5173 96.114 34.6452C94.6232 35.7673 92.793 36.3313 90.6174 36.3313C88.8661 36.3313 87.2904 35.9436 85.8966 35.1681C84.5027 34.3926 83.418 33.2941 82.6423 31.8724C81.8605 30.4507 81.4727 28.8116 81.4727 26.9552C81.4727 25.0988 81.8544 23.4245 82.6241 22.0028C83.3937 20.5811 84.4664 19.4884 85.8481 18.7247C87.2298 17.961 88.8176 17.5732 90.6174 17.5732C92.4173 17.5732 93.9021 17.9434 95.2717 18.6894C96.6413 19.4297 97.7078 20.4871 98.4593 21.8501C99.2168 23.213 99.5925 24.7816 99.5925 26.5557C99.5925 27.2137 99.5501 27.8012 99.4592 28.324V28.3358Z" fill="white"/>
<path d="M109.877 18.4367C110.828 17.8904 111.919 17.6201 113.149 17.6201V22.4374H111.931C110.483 22.4374 109.392 22.7781 108.659 23.4537C107.926 24.1293 107.556 25.3102 107.556 26.9962V36.0433H102.95V17.8845H107.556V20.7044C108.15 19.7409 108.919 18.9889 109.877 18.4426" fill="white"/>
<path d="M129.809 24.0648C129.36 23.2658 128.767 22.6607 128.033 22.2436C127.3 21.8265 126.506 21.6209 125.652 21.6209C124.797 21.6209 124.034 21.8324 123.3 22.2612C122.567 22.6901 121.973 23.3069 121.525 24.1177C121.076 24.9284 120.852 25.8801 120.852 26.9669C120.852 28.0537 121.076 29.0113 121.525 29.822C121.973 30.6327 122.567 31.2496 123.3 31.6726C124.034 32.1014 124.815 32.3129 125.652 32.3129C126.488 32.3129 127.3 32.0956 128.033 31.655C128.767 31.2202 129.36 30.5975 129.809 29.7868C130.257 28.9819 130.482 28.0185 130.482 26.9023C130.482 25.7861 130.257 24.8638 129.809 24.0648ZM123.294 18.425C124.337 17.8669 125.524 17.5908 126.864 17.5908C128.421 17.5908 129.827 17.9727 131.088 18.7364C132.348 19.5001 133.348 20.5869 134.081 21.9969C134.815 23.4068 135.184 25.04 135.184 26.8964C135.184 28.7528 134.815 30.3978 134.081 31.8312C133.348 33.2646 132.348 34.3691 131.088 35.1622C129.827 35.9494 128.415 36.343 126.864 36.343C125.524 36.343 124.349 36.0728 123.331 35.5205C122.313 34.9742 121.482 34.2868 120.846 33.4585V44.7028H116.24V17.8787H120.846V20.5047C121.44 19.6764 122.252 18.9831 123.294 18.425Z" fill="white"/>
<path d="M151.037 24.0942C150.601 23.2952 150.007 22.6842 149.262 22.2554C148.516 21.8265 147.716 21.615 146.862 21.615C146.007 21.615 145.22 21.8206 144.492 22.2377C143.771 22.6548 143.183 23.2599 142.735 24.053C142.286 24.852 142.062 25.7978 142.062 26.8905C142.062 27.9832 142.286 28.9408 142.735 29.7574C143.183 30.5799 143.777 31.2026 144.511 31.6432C145.244 32.0779 146.026 32.3012 146.862 32.3012C147.698 32.3012 148.516 32.0897 149.262 31.6608C150.007 31.232 150.601 30.621 151.037 29.822C151.474 29.0231 151.698 28.0714 151.698 26.9552C151.698 25.839 151.48 24.8873 151.037 24.0883V24.0942ZM138.456 22.0145C139.19 20.5928 140.19 19.5001 141.45 18.7364C142.711 17.9727 144.123 17.5908 145.674 17.5908C147.032 17.5908 148.219 17.8611 149.244 18.4074C150.262 18.9538 151.08 19.6411 151.692 20.4753V17.8846H156.328V36.0434H151.692V33.388C151.098 34.2398 150.28 34.9448 149.244 35.5029C148.201 36.061 147.001 36.3371 145.644 36.3371C144.111 36.3371 142.711 35.9435 141.45 35.1563C140.19 34.3691 139.19 33.2588 138.456 31.8253C137.723 30.3978 137.354 28.747 137.354 26.8905C137.354 25.0341 137.723 23.4303 138.456 22.0086V22.0145Z" fill="white"/>
<path d="M167.352 18.4367C168.303 17.8904 169.394 17.6201 170.624 17.6201V22.4374H169.406C167.958 22.4374 166.867 22.7781 166.133 23.4537C165.4 24.1293 165.031 25.3102 165.031 26.9962V36.0433H160.425V17.8845H165.031V20.7044C165.624 19.7409 166.394 18.9889 167.352 18.4426" fill="white"/>
<path d="M184.914 36.0439L178.733 28.3069V36.0439H174.127V11.7871H178.733V25.5869L184.847 17.8851H190.835L182.811 26.9968L190.902 36.0439H184.914Z" fill="white"/>
</svg>
