<svg width="10" height="10" viewBox="0 0 10 10" fill="none" xmlns="http://www.w3.org/2000/svg">
<path d="M3.44182 8.12533C3.37533 8.04506 3.27652 7.9986 3.17228 7.9986H1.03741C0.637912 7.9986 0.35 7.69888 0.35 7.37236V0.976237C0.35 0.65093 0.638289 0.35 1.03741 0.35H8.0091C8.4086 0.35 8.69651 0.649715 8.69651 0.976237V7.37236C8.69651 7.69924 8.40989 7.9986 8.0091 7.9986H5.87423C5.76999 7.9986 5.67118 8.04506 5.60469 8.12533L4.52325 9.43087L3.44182 8.12533Z" fill="white" stroke="#5C5C5C" stroke-width="0.7" stroke-linejoin="round"/>
<path d="M4.19105 5.0871L4.13148 1.53906H4.9618L4.93201 3.31308L4.90222 5.0871H4.19105ZM4.54478 6.90168C4.27297 6.90168 4.05701 6.69146 4.05701 6.42222C4.05701 6.15298 4.27297 5.94644 4.54478 5.94644C4.82403 5.94644 5.03627 6.15298 5.03627 6.42222C5.03627 6.69146 4.82403 6.90168 4.54478 6.90168Z" fill="#5C5C5C"/>
</svg>
