<svg width="104" height="153" viewBox="0 0 104 153" fill="none" xmlns="http://www.w3.org/2000/svg">
<path d="M61.2776 89.7509C57.384 83.6317 55.5759 77.4603 55.6486 70.9225C55.7343 64.1214 58.4927 54.7744 62.7233 51.5507C63.477 50.9872 64.4087 50.4568 65.8646 50.4204C66.5138 50.4041 67.2441 50.4798 68.1159 50.7021C70.3147 51.2481 71.5234 52.3447 72.3053 54.485C74.6545 61.0373 71.4037 75.8809 63.7561 89.6701C63.2287 90.6224 61.852 90.6756 61.2781 89.7697L61.2776 89.7509ZM69.8293 15.3312C73.0558 15.2505 75.757 17.7747 75.8368 20.9656C75.9167 24.1564 73.3649 26.8122 70.1186 26.8934C66.8724 26.9746 64.2106 24.4494 64.1307 21.2586C64.0509 18.0677 66.6027 15.412 69.8293 15.3312ZM95.601 135.77L93.5352 135.822C92.827 135.84 92.2044 135.348 92.0886 134.656C90.6073 125.81 85.4936 114.988 74.1966 104.096C73.4709 103.419 73.3055 102.315 73.8357 101.476C83.1274 86.5183 91.5061 64.184 86.2783 49.5902C84.944 45.8297 82.8007 42.7844 79.9876 40.5071C79.425 40.0517 79.5017 39.1858 80.1228 38.8322C86.9575 35.0363 91.3752 27.4883 90.5549 19.0947C89.5367 9.0909 81.0313 1.19016 70.8429 0.76901C58.8224 0.299801 49.0436 9.95406 49.3358 21.6288C49.4861 27.6351 52.2577 32.9748 56.561 36.5859C57.1039 37.0418 57.0272 37.9077 56.3859 38.243C55.4735 38.7542 54.5624 39.3216 53.7127 39.9815C43.8021 47.5167 40.9575 62.8573 40.8592 70.7292C40.8093 74.2425 41.151 77.671 41.8656 81.0526C43.2943 87.7969 46.2722 94.2959 50.8393 100.586C52.2256 102.486 53.7668 104.288 55.4233 105.974L63.8286 114.591C72.3401 123.525 77.0307 132.385 77.8665 140.609C77.9134 140.909 77.9405 141.208 77.9682 141.527C78.3344 146.72 82.7647 150.685 88.0373 150.553L96.1627 150.35C100.294 150.246 103.536 146.822 103.374 142.732C103.195 138.717 99.6342 135.67 95.5617 135.771L95.601 135.77Z" fill="#8E43E7" fill-opacity="0.16"/>
<path d="M45.4571 112.121C45.2332 111.826 44.7985 111.762 44.4888 111.976C32.6544 119.729 23.6139 115.617 19.767 114.511C14.8887 113.093 9.75246 115.532 7.84158 120.2L4.31675 128.815C2.77634 132.553 4.61476 136.789 8.41292 138.309C12.1909 139.811 16.4966 138.013 18.0371 134.275L19.5583 130.555C19.8182 129.929 20.459 129.575 21.1312 129.69C29.0591 131.031 40.6168 132.677 54.0817 123.212C54.4297 122.959 54.4761 122.451 54.1735 122.158C52.8397 120.783 51.5243 119.351 50.2074 117.862C48.5453 115.951 46.9623 114.056 45.4576 112.14L45.4571 112.121Z" fill="#8E43E7" fill-opacity="0.16"/>
</svg>
