<svg width="217" height="34" viewBox="0 0 217 34" fill="none" xmlns="http://www.w3.org/2000/svg">
<path d="M188.16 13.32H191.26V15.48H188.16V13.32ZM188.16 19.06H191.26V21.2H188.16V19.06ZM194.18 9.24H196.72V27.76H194.18V9.24ZM190.5 9.54H192.98V26.94H190.5V9.54ZM184.98 10.54C185.793 10.54 186.5 10.8133 187.1 11.36C187.713 11.8933 188.18 12.6667 188.5 13.68C188.833 14.68 189 15.88 189 17.28C189 18.6667 188.833 19.8667 188.5 20.88C188.18 21.8933 187.713 22.6733 187.1 23.22C186.5 23.7533 185.787 24.02 184.96 24.02C184.16 24.02 183.453 23.7533 182.84 23.22C182.24 22.6733 181.773 21.8933 181.44 20.88C181.12 19.8667 180.96 18.6667 180.96 17.28C180.96 15.88 181.12 14.68 181.44 13.68C181.773 12.6667 182.24 11.8933 182.84 11.36C183.453 10.8133 184.167 10.54 184.98 10.54ZM184.98 13.06C184.633 13.06 184.34 13.2133 184.1 13.52C183.86 13.8267 183.673 14.2933 183.54 14.92C183.42 15.5333 183.36 16.32 183.36 17.28C183.36 18.2133 183.42 18.9933 183.54 19.62C183.673 20.2467 183.86 20.72 184.1 21.04C184.34 21.3467 184.633 21.5 184.98 21.5C185.327 21.5 185.62 21.3467 185.86 21.04C186.1 20.72 186.287 20.2467 186.42 19.62C186.553 18.9933 186.62 18.2133 186.62 17.28C186.62 16.32 186.553 15.5333 186.42 14.92C186.287 14.2933 186.1 13.8267 185.86 13.52C185.62 13.2133 185.327 13.06 184.98 13.06ZM212.578 9.24H215.118V27.76H212.578V9.24ZM210.358 16.32H213.438V18.44H210.358V16.32ZM208.538 9.54H211.018V26.94H208.538V9.54ZM199.738 11.14H207.038V23.14H199.738V11.14ZM204.578 13.22H202.218V21.08H204.578V13.22Z" fill="#010000"/>
<path d="M150.912 27.8592H153.853V9.27051H150.912V27.8592ZM148.717 10.7622H139.146V23.7071H140.763C144.057 23.7071 146.773 23.6221 149.672 23.2099L149.422 20.8853C146.892 21.238 144.676 21.3612 142.002 21.3825V18.1866H147.885V15.9045H142.002V13.1251H148.717V10.7622Z" fill="#8E43E7"/>
<path d="M158.208 25.4963L159.409 27.7785C162.414 27.3407 164.485 26.0785 165.644 24.3956C166.786 26.0743 168.857 27.3407 171.879 27.7785L173 25.4963C168.751 24.9778 167.053 22.8189 167.075 20.932V20.6005H164.214V20.932C164.193 22.8189 162.495 24.9778 158.203 25.4963M155.843 19.3553L157.21 21.3867C160.05 20.1628 161.871 18.5861 162.949 16.6142H165.538V19.9758H168.272V9.5595H165.538V14.2895H163.84C164.129 13.1676 164.256 11.9436 164.256 10.6389H156.922V12.9636H161.395C161.332 13.3801 161.272 13.7923 161.145 14.1875L156.17 14.3745L156.501 16.6992L160.105 16.3252C159.214 17.4854 157.847 18.4841 155.835 19.3553M172.206 9.27051H169.43V21.595H172.206V9.27051Z" fill="#8E43E7"/>
<path d="M12.6247 20.0904C11.8182 18.6837 11.4617 17.277 11.5126 15.798C11.5678 14.2596 12.213 12.1602 13.1425 11.4547C13.3081 11.3315 13.5118 11.2167 13.8259 11.2167C13.966 11.2167 14.123 11.238 14.3098 11.2932C14.781 11.4292 15.0356 11.6842 15.1927 12.173C15.6638 13.6689 14.8828 17.0092 13.1595 20.0861C13.0407 20.2986 12.7436 20.3028 12.6247 20.0946V20.0904ZM14.8701 3.29934C15.5662 3.29934 16.135 3.88582 16.135 4.60828C16.135 5.33075 15.5704 5.91723 14.8701 5.91723C14.1697 5.91723 13.6095 5.33075 13.6095 4.60828C13.6095 3.88582 14.174 3.29934 14.8701 3.29934ZM19.7768 30.6979H19.3311C19.1783 30.6979 19.0467 30.5831 19.0255 30.4259C18.7539 28.4157 17.7097 25.9381 15.3327 23.4095C15.1799 23.2522 15.1502 23.0015 15.2691 22.8145C17.3532 19.4826 19.2802 14.4764 18.2318 11.1445C17.9644 10.286 17.5187 9.58482 16.9245 9.05359C16.8056 8.94734 16.8268 8.75185 16.9627 8.67536C18.4567 7.85514 19.45 6.17222 19.3184 4.2683C19.1529 1.9989 17.3616 0.162978 15.1672 0.00998453C12.578 -0.164258 10.4175 1.9649 10.4175 4.60828C10.4175 5.96822 10.9863 7.19217 11.8946 8.03363C12.0092 8.13988 11.988 8.33537 11.848 8.40762C11.6485 8.51811 11.449 8.64136 11.2622 8.78585C9.08474 10.4348 8.38863 13.8899 8.32496 15.6706C8.29525 16.4653 8.35043 17.243 8.48625 18.0122C8.75791 19.5464 9.36488 21.0338 10.3157 22.483C10.6043 22.9207 10.9269 23.3372 11.2749 23.7282L13.0407 25.7256C14.8276 27.7953 15.7912 29.8267 15.927 31.6924C15.9355 31.7603 15.9397 31.8283 15.944 31.9006C15.9949 33.0778 16.9287 34 18.0662 34H19.8193C20.7106 34 21.4279 33.2435 21.4152 32.3171C21.3982 31.4076 20.6469 30.6979 19.7683 30.6979H19.7768Z" fill="#8E43E7"/>
<path d="M9.09299 25.0627C9.0463 24.9947 8.95292 24.9777 8.88501 25.0244C6.29158 26.7116 4.36454 25.7299 3.5411 25.4579C2.49693 25.1094 1.37636 25.6321 0.939174 26.6776L0.132706 28.607C-0.219593 29.4442 0.153929 30.4132 0.964642 30.7787C1.77111 31.1399 2.70916 30.7574 3.06146 29.9202L3.40951 29.0872C3.46894 28.947 3.60901 28.8705 3.75332 28.9003C5.4554 29.2487 7.93847 29.6865 10.8927 27.6211C10.9691 27.5658 10.9818 27.4511 10.9182 27.3831C10.638 27.0643 10.3621 26.7328 10.0862 26.3886C9.73817 25.9466 9.40709 25.5089 9.09299 25.0669V25.0627Z" fill="#8E43E7"/>
<path d="M31.8226 26.0739H28.5967V12.9335H31.8226V26.0696V26.0739ZM28.8175 10.8128C28.4397 10.4431 28.2529 9.97985 28.2529 9.42737C28.2529 8.8749 28.4397 8.41167 28.8175 8.03768C29.191 7.66795 29.6664 7.48096 30.2351 7.48096C30.8039 7.48096 31.2751 7.66795 31.6528 8.03768C32.0306 8.40742 32.2174 8.87065 32.2174 9.42737C32.2174 9.9841 32.0306 10.4431 31.6528 10.8171C31.2793 11.1868 30.8039 11.3738 30.2351 11.3738C29.6664 11.3738 29.1952 11.1868 28.8175 10.8171V10.8128Z" fill="#010000"/>
<path d="M45.7578 14.2298C46.6958 15.2157 47.1627 16.5969 47.1627 18.3691V26.0782H43.9369V18.8196C43.9369 17.7741 43.6864 16.9751 43.1771 16.4099C42.672 15.8489 41.9801 15.5685 41.1057 15.5685C40.2314 15.5685 39.5098 15.8489 38.9962 16.4099C38.4826 16.9709 38.2237 17.7741 38.2237 18.8196V26.0782H34.9978V12.9378H38.2237V14.574C38.6524 14.0045 39.2042 13.5583 39.8706 13.2311C40.537 12.9081 41.2713 12.7466 42.0693 12.7466C43.5888 12.7466 44.8197 13.2396 45.7535 14.2298H45.7578Z" fill="#010000"/>
<path d="M53.9839 15.662V22.0154C53.9839 22.4574 54.0858 22.7804 54.2938 22.9759C54.5017 23.1714 54.8498 23.2734 55.3422 23.2734H56.8405V26.0698H54.8116C52.0951 26.0698 50.7326 24.7098 50.7326 21.9899V15.6577H49.213V12.9293H50.7326V9.67822H53.9797V12.9251H56.8363V15.6535H53.9797L53.9839 15.662Z" fill="#010000"/>
<path d="M66.415 18.2716C66.398 17.4174 66.1009 16.7375 65.5151 16.219C64.9294 15.7048 64.2163 15.4498 63.3716 15.4498C62.5737 15.4498 61.8988 15.7005 61.3555 16.1977C60.8079 16.695 60.4768 17.3877 60.3537 18.2716H66.4108H66.415ZM69.6621 20.4986H60.3325C60.4089 21.4463 60.7315 22.19 61.3003 22.7255C61.8691 23.2609 62.5694 23.5329 63.3971 23.5329C64.5941 23.5329 65.4472 23.0017 65.9566 21.9435H69.4371C69.0678 23.2099 68.359 24.2469 67.3191 25.0629C66.2749 25.8746 64.9931 26.2825 63.4693 26.2825C62.2426 26.2825 61.139 26.0021 60.1627 25.4411C59.1865 24.8801 58.4267 24.0854 57.8834 23.0569C57.3359 22.0285 57.0642 20.8428 57.0642 19.4998C57.0642 18.1569 57.3316 16.9457 57.8707 15.9173C58.4097 14.8888 59.161 14.0983 60.1288 13.5459C61.0965 12.9934 62.2086 12.7129 63.4693 12.7129C64.7299 12.7129 65.7698 12.9806 66.7291 13.5204C67.6884 14.0558 68.4354 14.8208 68.9617 15.8068C69.4923 16.7927 69.7555 17.9274 69.7555 19.2109C69.7555 19.6868 69.7258 20.1118 69.6621 20.4901V20.4986Z" fill="#010000"/>
<path d="M76.9582 13.3373C77.6246 12.9421 78.3887 12.7466 79.2503 12.7466V16.2314H78.3971C77.3827 16.2314 76.6187 16.4779 76.1051 16.9666C75.5915 17.4554 75.3326 18.3096 75.3326 19.5293V26.074H72.1067V12.9378H75.3326V14.9777C75.7485 14.2808 76.2876 13.7368 76.9582 13.3416" fill="#010000"/>
<path d="M90.9185 17.4089C90.6044 16.8309 90.1884 16.3932 89.6749 16.0914C89.1613 15.7897 88.6052 15.641 88.0067 15.641C87.4083 15.641 86.8734 15.794 86.3598 16.1042C85.8463 16.4144 85.4303 16.8607 85.1162 17.4471C84.8021 18.0336 84.645 18.7221 84.645 19.5083C84.645 20.2945 84.8021 20.9872 85.1162 21.5737C85.4303 22.1602 85.8463 22.6064 86.3598 22.9124C86.8734 23.2226 87.421 23.3756 88.0067 23.3756C88.5925 23.3756 89.1613 23.2184 89.6749 22.8996C90.1884 22.5852 90.6044 22.1347 90.9185 21.5482C91.2326 20.966 91.3897 20.269 91.3897 19.4615C91.3897 18.6541 91.2326 17.9869 90.9185 17.4089ZM86.3556 13.3291C87.0857 12.9253 87.9176 12.7256 88.8556 12.7256C89.9465 12.7256 90.9312 13.0018 91.8141 13.5543C92.697 14.1068 93.3973 14.893 93.9109 15.9129C94.4245 16.9329 94.6834 18.1143 94.6834 19.4573C94.6834 20.8002 94.4245 21.9902 93.9109 23.0271C93.3973 24.0641 92.697 24.8631 91.8141 25.4368C90.9312 26.0063 89.9423 26.291 88.8556 26.291C87.9176 26.291 87.0942 26.0955 86.3811 25.696C85.668 25.3008 85.0865 24.8036 84.6408 24.2043V32.3385H81.4149V12.9338H84.6408V14.8335C85.0568 14.2343 85.6255 13.7328 86.3556 13.3291Z" fill="#010000"/>
<path d="M105.788 17.4301C105.482 16.8522 105.066 16.4102 104.544 16.0999C104.022 15.7897 103.462 15.6367 102.863 15.6367C102.265 15.6367 101.713 15.7855 101.203 16.0872C100.698 16.3889 100.287 16.8267 99.9725 17.4004C99.6585 17.9784 99.5014 18.6626 99.5014 19.453C99.5014 20.2435 99.6585 20.9362 99.9725 21.527C100.287 22.1219 100.703 22.5724 101.216 22.8911C101.73 23.2056 102.277 23.3671 102.863 23.3671C103.449 23.3671 104.022 23.2141 104.544 22.9039C105.066 22.5937 105.482 22.1517 105.788 21.5737C106.093 20.9957 106.25 20.3073 106.25 19.4998C106.25 18.6923 106.097 18.0039 105.788 17.4259V17.4301ZM96.9759 15.9257C97.4895 14.8972 98.1898 14.1068 99.0727 13.5543C99.9556 13.0018 100.945 12.7256 102.031 12.7256C102.982 12.7256 103.814 12.9211 104.531 13.3163C105.244 13.7115 105.817 14.2088 106.246 14.8122V12.9381H109.493V26.0743H106.246V24.1533C105.83 24.7696 105.257 25.2795 104.531 25.6833C103.801 26.087 102.961 26.2867 102.01 26.2867C100.936 26.2867 99.9556 26.002 99.0727 25.4325C98.1898 24.8631 97.4895 24.0598 96.9759 23.0229C96.4623 21.9902 96.2034 20.796 96.2034 19.453C96.2034 18.1101 96.4623 16.9499 96.9759 15.9214V15.9257Z" fill="#010000"/>
<path d="M117.214 13.3373C117.88 12.9421 118.644 12.7466 119.506 12.7466V16.2314H118.653C117.638 16.2314 116.874 16.4779 116.361 16.9666C115.847 17.4554 115.588 18.3096 115.588 19.5293V26.074H112.362V12.9378H115.588V14.9777C116.004 14.2808 116.543 13.7368 117.214 13.3416" fill="#010000"/>
<path d="M129.515 26.0743L125.185 20.4773V26.0743H121.959V8.52686H125.185V18.5097L129.468 12.9382H133.662L128.042 19.5296L133.708 26.0743H129.515Z" fill="#010000"/>
</svg>
