<svg width="16" height="16" viewBox="0 0 16 16" fill="none" xmlns="http://www.w3.org/2000/svg">
<g clip-path="url(#clip0_1876_1093)">
<path d="M8.49998 5.5C8.49998 5.36739 8.4473 5.24021 8.35354 5.14645C8.25977 5.05268 8.13259 5 7.99998 5C7.86737 5 7.7402 5.05268 7.64643 5.14645C7.55266 5.24021 7.49998 5.36739 7.49998 5.5V8.862L6.07098 11.242C6.00269 11.3558 5.98239 11.492 6.01455 11.6208C6.04672 11.7495 6.1287 11.8602 6.24248 11.9285C6.35626 11.9968 6.49251 12.0171 6.62125 11.9849C6.74999 11.9528 6.86069 11.8708 6.92898 11.757L8.42898 9.257C8.47547 9.17934 8.50001 9.09051 8.49998 9V5.5Z" fill="#5C5C5C"/>
<path d="M6.50006 0C6.36745 0 6.24027 0.0526784 6.1465 0.146447C6.05273 0.240215 6.00006 0.367392 6.00006 0.5C6.00006 0.632608 6.05273 0.759785 6.1465 0.853553C6.24027 0.947321 6.36745 1 6.50006 1H7.00006V2.07C5.63833 2.26673 4.36476 2.86034 3.33843 3.77667C2.31211 4.693 1.57854 5.89143 1.22935 7.22224C0.880162 8.55306 0.930843 9.95726 1.37506 11.2594C1.81928 12.5616 2.63734 13.704 3.72706 14.544L3.12506 15.146C3.03117 15.2398 2.97837 15.367 2.97828 15.4996C2.97818 15.6323 3.0308 15.7596 3.12456 15.8535C3.21831 15.9474 3.34552 16.0002 3.4782 16.0003C3.61088 16.0004 3.73817 15.9478 3.83206 15.854L4.57806 15.108C5.62307 15.6946 6.80167 16.0018 8.00006 16C9.19844 16.0018 10.377 15.6946 11.4221 15.108L12.1681 15.854C12.2619 15.9478 12.3892 16.0004 12.5219 16.0003C12.6546 16.0002 12.7818 15.9474 12.8756 15.8535C12.9693 15.7596 13.0219 15.6323 13.0218 15.4996C13.0217 15.367 12.9689 15.2398 12.8751 15.146L12.2741 14.544C13.3638 13.704 14.1818 12.5615 14.626 11.2592C15.0702 9.95696 15.1208 8.5527 14.7715 7.22186C14.4222 5.89101 13.6885 4.6926 12.662 3.77633C11.6356 2.86007 10.3619 2.26658 9.00006 2.07V1H9.50006C9.63266 1 9.75984 0.947321 9.85361 0.853553C9.94738 0.759785 10.0001 0.632608 10.0001 0.5C10.0001 0.367392 9.94738 0.240215 9.85361 0.146447C9.75984 0.0526784 9.63266 0 9.50006 0L6.50006 0ZM7.53806 3.018C7.8456 2.99425 8.15451 2.99425 8.46206 3.018C10.0087 3.13745 11.449 3.85129 12.4807 5.00975C13.5124 6.16821 14.0554 7.68124 13.9956 9.23136C13.9358 10.7815 13.278 12.2482 12.1602 13.3238C11.0423 14.3994 9.55133 15.0002 8.00006 15.0002C6.44878 15.0002 4.9578 14.3994 3.83995 13.3238C2.7221 12.2482 2.06428 10.7815 2.00451 9.23136C1.94474 7.68124 2.48767 6.16821 3.51938 5.00975C4.55109 3.85129 5.99139 3.13745 7.53806 3.018Z" fill="#5C5C5C"/>
</g>
<defs>
<clipPath id="clip0_1876_1093">
<rect width="16" height="16" fill="white"/>
</clipPath>
</defs>
</svg>
