<svg width="12" height="12" viewBox="0 0 12 12" fill="none" xmlns="http://www.w3.org/2000/svg">
<circle cx="6" cy="6" r="6" fill="#E0E0E0"/>
<path d="M6.49263 6.7437C6.29837 6.40529 6.2125 6.06689 6.22476 5.7111C6.23805 5.341 6.39346 4.83595 6.61736 4.66623C6.65723 4.63659 6.7063 4.60898 6.78196 4.60898C6.8157 4.60898 6.85352 4.61409 6.89851 4.62738C7.01199 4.6601 7.07333 4.72144 7.11116 4.83902C7.22464 5.19889 7.03653 6.00248 6.62144 6.74267C6.59282 6.79379 6.52125 6.79481 6.49263 6.74472V6.7437ZM7.03346 2.7043C7.20113 2.7043 7.33813 2.84539 7.33813 3.01919C7.33813 3.193 7.20215 3.33408 7.03346 3.33408C6.86477 3.33408 6.72982 3.193 6.72982 3.01919C6.72982 2.84539 6.86579 2.7043 7.03346 2.7043ZM8.21532 9.29554H8.10797C8.07117 9.29554 8.03948 9.26793 8.03436 9.23011C7.96893 8.74652 7.71743 8.15048 7.1449 7.54217C7.10809 7.50434 7.10094 7.44402 7.12956 7.39904C7.63155 6.5975 8.09571 5.39314 7.84318 4.5916C7.77877 4.38508 7.67142 4.21639 7.52829 4.08859C7.49966 4.06304 7.50477 4.01601 7.53749 3.9976C7.89737 3.80029 8.1366 3.39543 8.10491 2.9374C8.06503 2.39146 7.63359 1.94979 7.10503 1.91299C6.48138 1.87107 5.96099 2.38328 5.96099 3.01919C5.96099 3.34635 6.09799 3.6408 6.31678 3.84323C6.34438 3.86878 6.33927 3.91581 6.30553 3.93319C6.25748 3.95978 6.20943 3.98942 6.16444 4.02418C5.63997 4.42087 5.4723 5.25205 5.45696 5.68043C5.44981 5.87161 5.4631 6.05871 5.49581 6.24376C5.56124 6.61283 5.70744 6.97066 5.93645 7.31929C6.00598 7.4246 6.08368 7.52479 6.16751 7.61885L6.59282 8.09936C7.02324 8.59726 7.25532 9.08595 7.28803 9.53477C7.29008 9.55113 7.2911 9.56749 7.29212 9.58487C7.30439 9.86807 7.52931 10.0899 7.80331 10.0899H8.22555C8.44025 10.0899 8.61303 9.90794 8.60996 9.68506C8.60587 9.46627 8.42491 9.29554 8.21328 9.29554H8.21532Z" fill="#8E43E7"/>
<path d="M5.64136 7.93986C5.63012 7.92351 5.60763 7.91942 5.59127 7.93066C4.9666 8.33654 4.50244 8.10038 4.3041 8.03494C4.0526 7.95111 3.78269 8.07686 3.67739 8.32836L3.48314 8.79252C3.39828 8.99393 3.48825 9.22703 3.68352 9.31495C3.87777 9.40186 4.10372 9.30984 4.18857 9.10844L4.27241 8.90805C4.28672 8.87431 4.32046 8.85591 4.35522 8.86307C4.76519 8.9469 5.36328 9.0522 6.07485 8.55533C6.09325 8.54204 6.09632 8.51444 6.08099 8.49808C6.01351 8.4214 5.94705 8.34166 5.8806 8.25884C5.79677 8.15252 5.71702 8.04721 5.64136 7.94089V7.93986Z" fill="#8E43E7"/>
</svg>
