<svg width="21" height="31" viewBox="0 0 21 31" fill="none" xmlns="http://www.w3.org/2000/svg">
<path d="M11.9682 18.3177C11.2037 17.0351 10.8657 15.7525 10.914 14.4041C10.9663 13.0014 11.5779 11.0872 12.4591 10.444C12.6161 10.3317 12.8092 10.227 13.107 10.227C13.2397 10.227 13.3886 10.2464 13.5657 10.2968C14.0123 10.4208 14.2537 10.6533 14.4026 11.0989C14.8493 12.4628 14.1089 15.5084 12.4752 18.3138C12.3626 18.5075 12.0809 18.5114 11.9682 18.3216V18.3177ZM14.0968 3.00822C14.7567 3.00822 15.2959 3.54295 15.2959 4.20167C15.2959 4.86039 14.7607 5.39512 14.0968 5.39512C13.4329 5.39512 12.9018 4.86039 12.9018 4.20167C12.9018 3.54295 13.4369 3.00822 14.0968 3.00822ZM18.7483 27.9893H18.3258C18.1809 27.9893 18.0562 27.8846 18.0361 27.7413C17.7785 25.9085 16.7887 23.6494 14.5354 21.3439C14.3905 21.2006 14.3624 20.9719 14.475 20.8014C16.4507 17.7636 18.2775 13.199 17.2836 10.1612C17.0301 9.37844 16.6076 8.7391 16.0443 8.25474C15.9316 8.15787 15.9518 7.97963 16.0805 7.90988C17.4969 7.16204 18.4384 5.62761 18.3137 3.89168C18.1568 1.82252 16.4588 0.148597 14.3785 0.00910354C11.924 -0.149765 9.87589 1.79153 9.87589 4.20167C9.87589 5.44162 10.4151 6.55757 11.2762 7.32478C11.3848 7.42165 11.3647 7.5999 11.2319 7.66577C11.0428 7.76652 10.8537 7.87889 10.6766 8.01063C8.61243 9.51406 7.95254 12.6643 7.89218 14.2879C7.86401 15.0124 7.91632 15.7215 8.04508 16.4229C8.3026 17.8217 8.878 19.1779 9.77932 20.4992C10.0529 20.8983 10.3587 21.2781 10.6887 21.6345L12.3626 23.4557C14.0566 25.3427 14.97 27.1949 15.0987 28.896C15.1068 28.958 15.1108 29.02 15.1148 29.0858C15.1631 30.1592 16.0483 31 17.1267 31H18.7885C19.6335 31 20.3135 30.3103 20.3014 29.4656C20.2853 28.6364 19.5731 27.9893 18.7402 27.9893H18.7483Z" fill="#8E43E7"/>
<path d="M8.61995 22.8512C8.57569 22.7892 8.48716 22.7737 8.42278 22.8163C5.96427 24.3546 4.13748 23.4595 3.35688 23.2115C2.36703 22.8938 1.30476 23.3704 0.890316 24.3236L0.125802 26.0828C-0.208169 26.8461 0.145921 27.7296 0.914458 28.0628C1.67897 28.3922 2.56822 28.0434 2.90219 27.2801L3.23214 26.5206C3.28847 26.3928 3.42126 26.323 3.55806 26.3501C5.17159 26.6679 7.52549 27.067 10.326 25.1838C10.3984 25.1334 10.4105 25.0288 10.3502 24.9668C10.0846 24.6762 9.82305 24.374 9.5615 24.0601C9.23156 23.6571 8.9177 23.258 8.61995 22.855V22.8512Z" fill="#8E43E7"/>
</svg>
