<svg width="40" height="21" viewBox="0 0 40 21" fill="none" xmlns="http://www.w3.org/2000/svg">
<path d="M34.667 6.50117H27.3337C25.3086 6.50117 23.667 8.14315 23.667 10.1686V15.6698C23.667 17.6953 25.3086 19.3372 27.3337 19.3372H34.667C36.692 19.3372 38.3337 17.6953 38.3337 15.6698V10.1686C38.3337 8.14315 36.692 6.50117 34.667 6.50117ZM34.667 6.50117L34.667 4.66745C34.667 2.64197 33.0254 1 31.0004 1C29.6432 1 28.4582 1.73752 27.8242 2.83372M32.8337 12.9192C32.8337 13.932 32.0128 14.7529 31.0003 14.7529C29.9878 14.7529 29.167 13.932 29.167 12.9192C29.167 11.9065 29.9878 11.0855 31.0003 11.0855C32.0128 11.0855 32.8337 11.9065 32.8337 12.9192Z" stroke="#ABABAB" stroke-width="1.5" stroke-linecap="round" stroke-linejoin="round"/>
<path d="M13.6667 17.8368V15.9892C13.6667 15.0091 13.333 14.0692 12.7392 13.3763C12.1453 12.6833 11.3399 12.2939 10.5 12.2939H4.16667C3.32681 12.2939 2.52136 12.6833 1.92749 13.3763C1.33363 14.0692 1 15.0091 1 15.9892V17.8368" stroke="#ABABAB" stroke-width="1.5" stroke-linecap="round" stroke-linejoin="round"/>
<path d="M7.24508 9.03854C9.18831 9.03854 10.7636 7.46291 10.7636 5.51927C10.7636 3.57563 9.18831 2 7.24508 2C5.30186 2 3.72656 3.57563 3.72656 5.51927C3.72656 7.46291 5.30186 9.03854 7.24508 9.03854Z" stroke="#ABABAB" stroke-width="1.5" stroke-linecap="round" stroke-linejoin="round"/>
</svg>
