<svg xmlns="http://www.w3.org/2000/svg" width="37" height="36" fill="none" viewBox="0 0 37 36"><path fill="#fff" d="M.5 0h36v36H.5z"></path><path stroke="#333" stroke-linecap="round" stroke-miterlimit="10" stroke-width="1.5" d="M28.4 20.194V7.698a2.37 2.37 0 0 0-2.37-2.37H10.97a2.37 2.37 0 0 0-2.37 2.37v20.604a2.37 2.37 0 0 0 2.37 2.37h15.06a2.37 2.37 0 0 0 2.37-2.37v-4.143"></path><path stroke="#333" stroke-linecap="round" stroke-miterlimit="10" stroke-width="1.5" d="M24.414 8.565h-11.82a.95.95 0 0 0-.948.948v16.983c0 .523.424.948.948.948h11.82a.95.95 0 0 0 .948-.948V9.513a.95.95 0 0 0-.948-.948ZM25.097 27.21l2.629 2.628M25.097 8.706l2.629-2.63M11.875 27.237l-2.601 2.601M11.875 8.678 9.274 6.077"></path><path stroke="#333" stroke-linecap="round" stroke-miterlimit="10" stroke-width="1.5" d="m20.905 20.63.441-.441a2.37 2.37 0 0 1 3.352 0l.44.44"></path><path stroke="#333" stroke-linecap="round" stroke-miterlimit="10" stroke-width="1.5" d="m11.858 21.512 3.289-3.289a2.37 2.37 0 0 1 3.351 0l6.71 6.71"></path><path fill="#FFA33F" stroke="#333" stroke-linecap="round" stroke-miterlimit="10" stroke-width="1.5" d="M20.4 14.926a1.867 1.867 0 1 0 0-3.734 1.867 1.867 0 0 0 0 3.734Z"></path></svg>