<svg xmlns="http://www.w3.org/2000/svg" width="37" height="36" fill="none" viewBox="0 0 37 36"><path fill="#fff" d="M.75 0h36v36h-36z"></path><path fill="#B070F0" d="m21.123 12.375-3.45-3.45-.344 2.113-.065 1.876.776 2.026 2.35 1.876 3.126.927 1.746-.065.884-.28-.884-.884z"></path><path stroke="#333" stroke-linecap="round" stroke-miterlimit="10" stroke-width="1.5" d="M30.306 12.665q.162-.716.164-1.48a6.685 6.685 0 1 0-2.336 5.077"></path><path stroke="#333" stroke-linecap="round" stroke-miterlimit="10" stroke-width="1.5" d="m22.542 17.748.01.01-8.58 6.684a2.457 2.457 0 0 1-3.25-.204v0a2.46 2.46 0 0 1-.198-3.244l6.678-8.576.02.01"></path><path stroke="#333" stroke-linecap="round" stroke-miterlimit="10" stroke-width="1.5" d="m10.651 24.688-.262.263a2.63 2.63 0 0 0 0 3.718v0a2.63 2.63 0 0 0 3.718 0l4.183-4.183a2.32 2.32 0 0 1 3.283 0v0a2.32 2.32 0 0 1 0 3.283l-2.136 2.136M17.576 17.384l-1.052 1.062M17.53 8.846l8.594 8.593"></path></svg>