<svg xmlns="http://www.w3.org/2000/svg" width="37" height="36" fill="none" viewBox="0 0 37 36"><path fill="#fff" d="M.5 0h36v36H.5z"></path><path stroke="#333" stroke-linecap="round" stroke-miterlimit="10" stroke-width="1.5" d="M28.368 24.005a10.93 10.93 0 0 0 2.892-7.423c0-6.059-4.912-10.97-10.971-10.97S9.318 10.522 9.318 16.581s4.912 10.971 10.97 10.971c1.769 0 3.44-.418 4.918-1.16M20.289 5.611v21.942"></path><path stroke="#333" stroke-linecap="round" stroke-miterlimit="10" stroke-width="1.5" d="M9.399 15.26q3.402-1.608 6.83-2.215a22.9 22.9 0 0 1 8.46.054c2.152.405 4.312 1.125 6.49 2.151"></path><path stroke="#333" stroke-linecap="round" stroke-miterlimit="10" stroke-width="1.5" d="M27.525 8.338c-1.737 1.458-2.916 2.997-2.835 4.761v.018c.099 2.043.297 4.383 5.238 8.712M13.233 8.185c1.8 1.494 3.06 3.051 2.997 4.851v.081c-.1 2.07-.306 4.455-5.454 8.92"></path><path fill="#FF7262" stroke="#333" stroke-linecap="round" stroke-miterlimit="10" stroke-width="1.5" d="M12.065 27.995h.894c.655 0 1.273.29 1.717.772q.172.188.35.37c.441.45.855 1.036 1.494 1.207.918.243 1.63-.531 1.81-1.36.215-.953-.19-5.687-.352-6.155-.558-1.692-2.232-2.052-3.726-1.332-.108.054-.369.27-.486.27h-3.402c-.117 0-.378-.216-.486-.27-1.503-.72-3.168-.351-3.726 1.332-.153.468-.567 5.202-.35 6.156.188.819.89 1.602 1.808 1.359.64-.171 1.053-.756 1.494-1.206q.174-.178.341-.359c.453-.486 1.078-.784 1.742-.784z"></path><path stroke="#333" stroke-linecap="round" stroke-miterlimit="10" stroke-width="1.5" d="M8.373 24.574h1.89M9.314 23.625v1.89"></path><path fill="#333" d="M15.432 24.3a.675.675 0 1 0 0-1.35.675.675 0 0 0 0 1.35M14.01 25.767a.675.675 0 1 0 0-1.35.675.675 0 0 0 0 1.35"></path></svg>