<svg xmlns="http://www.w3.org/2000/svg" width="36" height="36" fill="none" viewBox="0 0 36 36"><path fill="#fff" d="M0 0h36v36H0z"></path><path fill="#B070F0" d="m12.312 29.844 3.702-6.982c.845-1.594 3.129-1.595 3.975-.001l3.708 6.983"></path><path stroke="#333" stroke-linecap="round" stroke-miterlimit="10" stroke-width="1.5" d="m12.312 29.844 3.702-6.982c.845-1.594 3.129-1.595 3.975-.001l3.708 6.983M4.437 29.844h27.126"></path><path stroke="#333" stroke-linecap="round" stroke-miterlimit="10" stroke-width="1.5" d="m5.967 29.844 10.047-18.906c.846-1.592 3.127-1.593 3.973-.001l5.858 11.015m4.197 7.892-2.377-4.47M6.039 29.466l-.945-2.178M30.978 27.315l-.945 2.178M18 29.844v-7.407"></path><circle cx="9.082" cy="8.006" r="1.894" stroke="#333" stroke-width="1.35"></circle></svg>