<svg xmlns="http://www.w3.org/2000/svg" width="36" height="36" fill="none" viewBox="0 0 36 36"><path fill="#fff" d="M0 0h36v36H0z"></path><path fill="#5194FF" d="m6.757 19.48 4.747.343 2.063 2.958 3.096 2.442-.31 2.236-1.892 2.543-2.51.621h-1.892l-2.201-1.1-1.72-2.064-.481-6.776z"></path><path stroke="#333" stroke-linecap="round" stroke-miterlimit="10" stroke-width="1.5" d="M29.518 20.026a9.8 9.8 0 0 0 .878-4.067V8.806c0-1.823-1.742-3.139-3.537-2.816a35.3 35.3 0 0 1-12.583 0c-1.794-.323-3.537.993-3.537 2.816v7.153a9.82 9.82 0 0 0 9.823 9.823h.012c2.39 0 4.58-.853 6.282-2.27M16.446 12.712h2.122M22.568 12.712h2.121"></path><path stroke="#333" stroke-linecap="round" stroke-miterlimit="10" stroke-width="1.5" d="M17.081 18.76c2.32 2.204 4.642 2.204 6.95 0M17.081 25.671a5.75 5.75 0 0 1-5.72 5.154h-.007a5.75 5.75 0 0 1-5.75-5.751v-4.17c0-1.077 1.028-1.853 2.087-1.664a21 21 0 0 0 3.663.328M9.148 23.731h.934"></path><path stroke="#333" stroke-linecap="round" stroke-miterlimit="10" stroke-width="1.5" d="M9.73 27.117q1.534-1.455 3.061 0"></path></svg>