<svg xmlns="http://www.w3.org/2000/svg" width="36" height="36" fill="none" viewBox="0 0 36 36"><path fill="#fff" d="M0 0h36v36H0z"></path><path stroke="#333" stroke-linecap="round" stroke-miterlimit="10" stroke-width="1.5" d="M11.126 20.736V8.258c0-1.17.948-2.118 2.117-2.118h9.513c1.17 0 2.118.948 2.118 2.118v12.478M24.874 25.412v4.447H11.126v-4.447"></path><path stroke="#333" stroke-linecap="round" stroke-miterlimit="10" stroke-width="1.5" d="M11.126 25.412v4.447H9.618A2.12 2.12 0 0 1 7.5 27.742V17.05c0-1.17.948-2.118 2.118-2.118h1.508v5.803M24.874 20.736v-5.803h1.508c1.17 0 2.118.948 2.118 2.118v.576m-3.626 7.785v4.447h1.508c1.17 0 2.118-.948 2.118-2.117v-6.435"></path><path fill="#B070F0" stroke="#333" stroke-linecap="round" stroke-miterlimit="10" stroke-width="1.5" d="M21.316 6.14h-6.632v4.515c0 1.17.948 2.118 2.117 2.118H19.2c1.17 0 2.117-.948 2.117-2.118z"></path><path stroke="#333" stroke-linecap="round" stroke-miterlimit="10" stroke-width="1.5" d="M24.01 20.736H12.091c-1.17 0-2.117.948-2.117 2.118v.44c0 1.17.948 2.118 2.117 2.118h11.92c1.169 0 2.117-.948 2.117-2.118v-.44c0-1.17-.948-2.118-2.118-2.118Z"></path></svg>