<svg xmlns="http://www.w3.org/2000/svg" width="37" height="36" fill="none" viewBox="0 0 37 36"><path fill="#fff" d="M.75 0h36v36h-36z"></path><path stroke="#333" stroke-linecap="round" stroke-miterlimit="10" stroke-width="1.5" d="M21.763 8.69a10.445 10.445 0 0 1 7.433 10.005c0 2.035-.583 3.935-1.59 5.54M15.737 8.69a10.43 10.43 0 0 0-7.432 10.006c0 5.768 4.682 10.44 10.45 10.44 2.414 0 4.636-.818 6.405-2.192"></path><path stroke="#333" stroke-linecap="round" stroke-miterlimit="10" stroke-width="1.5" d="m24.024 27.711 1.866 1.097c1.318.775.769 2.793-.76 2.793H12.37c-1.528 0-2.078-2.018-.76-2.793l1.866-1.097M8.438 17.003h-.134a2.146 2.146 0 0 0-2.145 2.145 2.14 2.14 0 0 0 2.466 2.11M29.062 17.003h.134c1.184 0 2.145.961 2.145 2.145a2.14 2.14 0 0 1-2.466 2.11M15.91 17.172v1.611M21.59 17.172v1.611M16.106 22.015q2.646 2.51 5.279 0"></path><path fill="#FF7262" stroke="#333" stroke-linecap="round" stroke-miterlimit="10" stroke-width="1.5" d="M18.755 12.375a3.035 3.035 0 1 0 0-6.071 3.035 3.035 0 0 0 0 6.07Z"></path><path stroke="#333" stroke-linecap="round" stroke-miterlimit="10" stroke-width="1.5" d="M16.057 7.666a2.16 2.16 0 0 1-.347-1.157c0-1.158.944-2.11 2.11-2.11"></path></svg>