<svg xmlns="http://www.w3.org/2000/svg" width="37" height="36" fill="none" viewBox="0 0 37 36"><path fill="#fff" d="M.25 0h36v36h-36z"></path><path stroke="#333" stroke-linecap="round" stroke-miterlimit="10" stroke-width="1.5" d="M27.767 15.805a4.3 4.3 0 0 0-1.789-.39 4.27 4.27 0 0 1-4.194-3.433l-.077-.386a7.8 7.8 0 0 0-1.6-2.97c-2.43-2.805-6.722-3.721-10.212-1.475C7.56 8.646 6.25 11.298 6.25 14.065v13.633a2.41 2.41 0 0 0 2.412 2.41l19.178-.007a2.41 2.41 0 0 0 2.41-2.41v-8.005c0-.43-.063-.844-.18-1.234M6.25 21.239h24"></path><path fill="#FFA33F" stroke="#333" stroke-linecap="round" stroke-miterlimit="10" stroke-width="1.5" d="M12.316 21.239h-.676a.964.964 0 0 0-.964.964v2.247c0 .532.432.964.964.964h.675a.964.964 0 0 0 .965-.964v-2.247a.964.964 0 0 0-.964-.964Z"></path><path stroke="#333" stroke-linecap="round" stroke-miterlimit="10" stroke-width="1.5" d="M11.988 25.414v4.696"></path><path fill="#FFA33F" stroke="#333" stroke-linecap="round" stroke-miterlimit="10" stroke-width="1.5" d="M18.583 21.239h-.675a.964.964 0 0 0-.964.964v2.247c0 .532.431.964.964.964h.675a.964.964 0 0 0 .964-.964v-2.247a.964.964 0 0 0-.964-.964Z"></path><path stroke="#333" stroke-linecap="round" stroke-miterlimit="10" stroke-width="1.5" d="M18.255 25.414v4.696"></path><path fill="#FFA33F" stroke="#333" stroke-linecap="round" stroke-miterlimit="10" stroke-width="1.5" d="M24.85 21.239h-.675a.964.964 0 0 0-.964.964v2.247c0 .532.432.964.964.964h.675a.964.964 0 0 0 .965-.964v-2.247a.964.964 0 0 0-.965-.964Z"></path><path stroke="#333" stroke-linecap="round" stroke-miterlimit="10" stroke-width="1.5" d="M24.523 25.414v4.696"></path></svg>