<svg width="28" height="28" viewBox="0 0 28 28" fill="none" xmlns="http://www.w3.org/2000/svg">
<path d="M10.4 0C13.1583 0 15.8035 1.09571 17.7539 3.04609C19.7043 4.99647 20.8 7.64175 20.8 10.4C20.8 12.976 19.856 15.344 18.304 17.168L18.736 17.6H20L28 25.6L25.6 28L17.6 20V18.736L17.168 18.304C15.344 19.856 12.976 20.8 10.4 20.8C7.64175 20.8 4.99647 19.7043 3.04609 17.7539C1.09571 15.8035 0 13.1583 0 10.4C0 7.64175 1.09571 4.99647 3.04609 3.04609C4.99647 1.09571 7.64175 0 10.4 0ZM10.4 3.2C6.4 3.2 3.2 6.4 3.2 10.4C3.2 14.4 6.4 17.6 10.4 17.6C14.4 17.6 17.6 14.4 17.6 10.4C17.6 6.4 14.4 3.2 10.4 3.2Z" fill="black"/>
</svg>
