<svg width="248" height="45" viewBox="0 0 248 45" fill="none" xmlns="http://www.w3.org/2000/svg">
<path d="M199.982 34L191.492 8.63477H197.363L203.164 28.5684H203.27L209.053 8.63477H214.941L206.451 34H199.982ZM217.543 34V8.63477H222.852V34H217.543ZM227.07 34V8.63477H237.266C242.609 8.63477 246.178 12.0801 246.178 17.3008V17.3359C246.178 22.5566 242.609 26.002 237.266 26.002H232.379V34H227.07ZM235.965 12.8359H232.379V21.8535H235.965C239.006 21.8535 240.799 20.2363 240.799 17.3535V17.3184C240.799 14.4355 239.006 12.8359 235.965 12.8359Z" fill="#8E43E7"/>
<path d="M6.06422 33.9604H0.584072V11.6601H6.06422V33.9532V33.9604ZM0.959027 8.06115C0.317273 7.43368 0 6.64755 0 5.70995C0 4.77236 0.317273 3.98622 0.959027 3.35154C1.59357 2.72408 2.40117 2.40674 3.36741 2.40674C4.33365 2.40674 5.13403 2.72408 5.77579 3.35154C6.41754 3.97901 6.73482 4.76515 6.73482 5.70995C6.73482 6.65476 6.41754 7.43368 5.77579 8.06836C5.14124 8.69583 4.33365 9.01317 3.36741 9.01317C2.40117 9.01317 1.60078 8.69583 0.959027 8.06836V8.06115Z" fill="#8E43E7"/>
<path d="M29.7382 13.86C31.3317 15.5332 32.1249 17.8772 32.1249 20.8847V33.9678H26.6448V21.6492C26.6448 19.875 26.2193 18.5191 25.354 17.5599C24.496 16.6078 23.3206 16.1318 21.8352 16.1318C20.3498 16.1318 19.124 16.6078 18.2515 17.5599C17.379 18.5119 16.9391 19.875 16.9391 21.6492V33.9678H11.459V11.6674H16.9391V14.4442C17.6674 13.4777 18.6048 12.7204 19.7369 12.1651C20.869 11.617 22.1164 11.3429 23.472 11.3429C26.0535 11.3429 28.1446 12.1795 29.731 13.86H29.7382Z" fill="#8E43E7"/>
<path d="M43.7123 16.2903V27.0726C43.7123 27.8227 43.8853 28.3708 44.2387 28.7026C44.592 29.0344 45.1833 29.2075 46.0197 29.2075H48.5651V33.9531H45.1184C40.5035 33.9531 38.1889 31.6452 38.1889 27.0294V16.2831H35.6074V11.6528H38.1889V6.13544H43.7051V11.6456H48.5579V16.2759H43.7051L43.7123 16.2903Z" fill="#8E43E7"/>
<path d="M64.8305 20.7189C64.8017 19.2692 64.2969 18.1152 63.3019 17.2353C62.3068 16.3626 61.0954 15.9299 59.6604 15.9299C58.3048 15.9299 57.1583 16.3554 56.2354 17.1993C55.3052 18.0431 54.7427 19.2187 54.5336 20.7189H64.8233H64.8305ZM70.3467 24.4981H54.4976C54.6274 26.1064 55.1754 27.3686 56.1416 28.2773C57.1078 29.1861 58.2976 29.6476 59.7037 29.6476C61.7371 29.6476 63.1865 28.7461 64.0518 26.9503H69.9646C69.3372 29.0995 68.133 30.8593 66.3664 32.2441C64.5926 33.6216 62.4149 34.314 59.8263 34.314C57.7424 34.314 55.8676 33.838 54.2091 32.8859C52.5507 31.9339 51.2599 30.5852 50.337 28.8399C49.4068 27.0945 48.9453 25.0823 48.9453 22.8032C48.9453 20.5241 49.3996 18.4686 50.3153 16.7233C51.2311 14.9779 52.5074 13.6364 54.1515 12.6988C55.7955 11.7612 57.6847 11.2852 59.8263 11.2852C61.9679 11.2852 63.7345 11.7396 65.3641 12.6555C66.9937 13.5643 68.2628 14.8625 69.157 16.5357C70.0583 18.209 70.5054 20.1347 70.5054 22.3128C70.5054 23.1205 70.4549 23.8418 70.3467 24.4837V24.4981Z" fill="#8E43E7"/>
<path d="M82.7418 12.3454C83.8739 11.6747 85.1719 11.3429 86.6356 11.3429V17.2569H85.1863C83.4629 17.2569 82.165 17.6753 81.2925 18.5047C80.42 19.3341 79.9801 20.7837 79.9801 22.8537V33.9605H74.5V11.6674H79.9801V15.1293C80.6868 13.9465 81.6026 13.0234 82.7418 12.3526" fill="#8E43E7"/>
<path d="M106.457 19.2543C105.924 18.2734 105.217 17.5306 104.345 17.0185C103.472 16.5064 102.527 16.254 101.511 16.254C100.494 16.254 99.5855 16.5136 98.713 17.0401C97.8405 17.5666 97.1338 18.3239 96.6002 19.3192C96.0667 20.3145 95.7999 21.4829 95.7999 22.8172C95.7999 24.1514 96.0667 25.327 96.6002 26.3223C97.1338 27.3176 97.8405 28.0749 98.713 28.5942C99.5855 29.1207 100.516 29.3803 101.511 29.3803C102.506 29.3803 103.472 29.1135 104.345 28.5725C105.217 28.0388 105.924 27.2743 106.457 26.2791C106.991 25.291 107.258 24.1082 107.258 22.7378C107.258 21.3675 106.991 20.2352 106.457 19.2543ZM98.7058 12.3305C99.946 11.6454 101.359 11.3064 102.953 11.3064C104.806 11.3064 106.479 11.7752 107.979 12.7128C109.479 13.6504 110.668 14.9846 111.541 16.7156C112.413 18.4465 112.853 20.4515 112.853 22.7306C112.853 25.0097 112.413 27.0291 111.541 28.7889C110.668 30.5487 109.479 31.9046 107.979 32.8783C106.479 33.8447 104.799 34.3279 102.953 34.3279C101.359 34.3279 99.9604 33.9962 98.749 33.3182C97.5376 32.6475 96.5498 31.8036 95.7927 30.7867V44.591H90.3125V11.6598H95.7927V14.8837C96.4993 13.8667 97.4655 13.0157 98.7058 12.3305Z" fill="#8E43E7"/>
<path d="M131.717 19.2904C131.198 18.3095 130.492 17.5594 129.605 17.0329C128.718 16.5064 127.766 16.2468 126.749 16.2468C125.732 16.2468 124.795 16.4992 123.93 17.0113C123.072 17.5234 122.372 18.2662 121.839 19.2399C121.305 20.2207 121.038 21.3819 121.038 22.7234C121.038 24.0649 121.305 25.2405 121.839 26.243C122.372 27.2527 123.079 28.0172 123.951 28.5581C124.824 29.0918 125.754 29.3659 126.749 29.3659C127.744 29.3659 128.718 29.1063 129.605 28.5798C130.492 28.0533 131.198 27.3032 131.717 26.3223C132.237 25.3415 132.503 24.1731 132.503 22.8027C132.503 21.4324 132.244 20.264 131.717 19.2832V19.2904ZM116.748 16.7372C117.62 14.9919 118.81 13.6504 120.31 12.7128C121.81 11.7752 123.49 11.3064 125.336 11.3064C126.951 11.3064 128.364 11.6382 129.583 12.3089C130.794 12.9796 131.768 13.8235 132.496 14.8476V11.667H138.012V33.9601H132.496V30.7002C131.789 31.7459 130.816 32.6114 129.583 33.2966C128.343 33.9817 126.915 34.3207 125.3 34.3207C123.476 34.3207 121.81 33.8375 120.31 32.8711C118.81 31.9046 117.62 30.5415 116.748 28.7817C115.875 27.0291 115.436 25.0025 115.436 22.7234C115.436 20.4443 115.875 18.4754 116.748 16.73V16.7372Z" fill="#8E43E7"/>
<path d="M151.127 12.3454C152.259 11.6747 153.557 11.3429 155.02 11.3429V17.2569H153.571C151.848 17.2569 150.55 17.6753 149.677 18.5047C148.805 19.3341 148.365 20.7837 148.365 22.8537V33.9605H142.885V11.6674H148.365V15.1293C149.072 13.9465 149.987 13.0234 151.127 12.3526" fill="#8E43E7"/>
<path d="M172.025 33.9603L164.67 24.4618V33.9603H159.189V4.18091H164.67V21.1225L171.945 11.6672H179.069L169.522 22.8535L179.149 33.9603H172.025Z" fill="#8E43E7"/>
</svg>
