<svg width="247" height="47" viewBox="0 0 247 47" fill="none" xmlns="http://www.w3.org/2000/svg">
<path d="M215.463 38.5111H219.663V12.8149H215.463V38.5111ZM212.33 14.877H198.664V32.7714H200.973C205.676 32.7714 209.554 32.6539 213.693 32.0841L213.336 28.8706C209.724 29.3582 206.56 29.5286 202.743 29.558V25.1402H211.142V21.9854H202.743V18.1433H212.33V14.877Z" fill="#8E43E7"/>
<path d="M225.88 35.2447L227.595 38.3994C231.885 37.7943 234.843 36.0496 236.497 33.7232C238.127 36.0437 241.085 37.7943 245.4 38.3994L246.999 35.2447C240.933 34.528 238.509 31.5436 238.539 28.9352V28.477H234.455V28.9352C234.425 31.5436 232.001 34.528 225.874 35.2447M222.504 26.7557L224.456 29.5638C228.51 27.8719 231.11 25.6924 232.649 22.9665H236.346V27.6134H240.248V13.2144H236.346V19.753H233.922C234.334 18.2021 234.516 16.5102 234.516 14.7066H224.044V17.9201H230.431C230.34 18.4958 230.255 19.0657 230.073 19.612L222.971 19.8705L223.444 23.084L228.589 22.567C227.316 24.1708 225.365 25.5514 222.492 26.7557M245.866 12.8149H241.903V29.8517H245.866V12.8149Z" fill="#8E43E7"/>
<path d="M18.0251 27.772C16.8737 25.8274 16.3646 23.8829 16.4374 21.8385C16.5161 19.7118 17.4373 16.8097 18.7645 15.8345C19.0008 15.6641 19.2917 15.5055 19.7401 15.5055C19.9401 15.5055 20.1644 15.5349 20.431 15.6112C21.1037 15.7992 21.4673 16.1517 21.6915 16.8273C22.3642 18.8952 21.2491 23.5128 18.7887 27.7661C18.619 28.0598 18.1948 28.0657 18.0251 27.7778V27.772ZM21.2309 4.56085C22.2248 4.56085 23.0369 5.37157 23.0369 6.37028C23.0369 7.36898 22.2309 8.1797 21.2309 8.1797C20.231 8.1797 19.4311 7.36898 19.4311 6.37028C19.4311 5.37157 20.2371 4.56085 21.2309 4.56085ZM28.2365 42.4353H27.6002C27.382 42.4353 27.1941 42.2767 27.1638 42.0593C26.776 39.2806 25.2852 35.8556 21.8915 32.3601C21.6733 32.1428 21.6309 31.7962 21.8006 31.5377C24.7761 26.9319 27.5275 20.0114 26.0306 15.4056C25.6488 14.2189 25.0125 13.2496 24.1641 12.5153C23.9944 12.3684 24.0247 12.0981 24.2186 11.9924C26.3518 10.8586 27.7699 8.53218 27.582 5.9003C27.3456 2.76318 24.7883 0.225293 21.6552 0.0138021C17.9585 -0.227062 14.8738 2.71618 14.8738 6.37028C14.8738 8.25019 15.6859 9.94212 16.9828 11.1053C17.1464 11.2522 17.1161 11.5224 16.9161 11.6223C16.6313 11.775 16.3464 11.9454 16.0798 12.1451C12.9709 14.4245 11.9771 19.2007 11.8862 21.6622C11.8437 22.7608 11.9225 23.8359 12.1165 24.8992C12.5043 27.02 13.3709 29.0762 14.7284 31.0794C15.1405 31.6845 15.601 32.2603 16.098 32.8007L18.619 35.5619C21.1703 38.4229 22.546 41.231 22.7399 43.81C22.752 43.904 22.7581 43.998 22.7642 44.0979C22.8369 45.7252 24.1701 47 25.7942 47H28.2971C29.5697 47 30.5939 45.9543 30.5757 44.6736C30.5515 43.4164 29.4788 42.4353 28.2244 42.4353H28.2365Z" fill="#8E43E7"/>
<path d="M12.9825 34.6455C12.9158 34.5515 12.7825 34.528 12.6855 34.5926C8.98277 36.9249 6.23146 35.5678 5.05578 35.1918C3.56498 34.7101 1.9651 35.4327 1.3409 36.8779L0.189471 39.545C-0.313523 40.7023 0.219772 42.0418 1.37726 42.547C2.52869 43.0464 3.86799 42.5176 4.37099 41.3603L4.86792 40.2089C4.95276 40.015 5.15275 39.9093 5.35879 39.9504C7.78892 40.4321 11.3341 41.0372 15.552 38.1821C15.6611 38.1057 15.6793 37.9471 15.5884 37.8531C15.1884 37.4125 14.7945 36.9543 14.4006 36.4784C13.9036 35.8674 13.4309 35.2623 12.9825 34.6514V34.6455Z" fill="#8E43E7"/>
<path d="M45.4345 36.0436H40.8288V17.8788H45.4345V36.0377V36.0436ZM41.1439 14.9474C40.6045 14.4362 40.3379 13.7959 40.3379 13.0322C40.3379 12.2685 40.6045 11.6281 41.1439 11.1111C41.6772 10.6 42.3559 10.3416 43.168 10.3416C43.9801 10.3416 44.6527 10.6 45.1921 11.1111C45.7314 11.6222 45.9981 12.2626 45.9981 13.0322C45.9981 13.8018 45.7314 14.4362 45.1921 14.9532C44.6588 15.4643 43.9801 15.7228 43.168 15.7228C42.3559 15.7228 41.6832 15.4643 41.1439 14.9532V14.9474Z" fill="#010000"/>
<path d="M65.3313 19.6706C66.6706 21.0336 67.3372 22.9429 67.3372 25.3926V36.0494H62.7315V26.0154C62.7315 24.5702 62.3739 23.4657 61.6467 22.6844C60.9255 21.9089 59.9377 21.5212 58.6893 21.5212C57.4409 21.5212 56.4107 21.9089 55.6774 22.6844C54.9441 23.4599 54.5745 24.5702 54.5745 26.0154V36.0494H49.9688V17.8847H54.5745V20.1465C55.1866 19.3593 55.9744 18.7424 56.9258 18.2901C57.8773 17.8436 58.9257 17.6204 60.065 17.6204C62.2345 17.6204 63.992 18.3018 65.3252 19.6706H65.3313Z" fill="#010000"/>
<path d="M77.0753 21.6505V30.4333C77.0753 31.0443 77.2207 31.4907 77.5177 31.761C77.8146 32.0312 78.3116 32.1722 79.0146 32.1722H81.1538V36.0378H78.257C74.3785 36.0378 72.4332 34.1579 72.4332 30.398V21.6447H70.2637V17.8731H72.4332V13.3789H77.0692V17.8672H81.1477V21.6388H77.0692L77.0753 21.6505Z" fill="#010000"/>
<path d="M94.8232 25.2577C94.799 24.0768 94.3747 23.1369 93.5384 22.4201C92.7021 21.7093 91.684 21.3568 90.4781 21.3568C89.3388 21.3568 88.3752 21.7034 87.5995 22.3908C86.8177 23.0781 86.345 24.0357 86.1693 25.2577H94.8171H94.8232ZM99.4592 28.336H86.139C86.2481 29.6461 86.7086 30.6742 87.5207 31.4144C88.3328 32.1546 89.3327 32.5306 90.5144 32.5306C92.2234 32.5306 93.4415 31.7962 94.1687 30.3334H99.138C98.6108 32.0841 97.5988 33.5175 96.114 34.6455C94.6232 35.7676 92.793 36.3315 90.6174 36.3315C88.8661 36.3315 87.2904 35.9438 85.8966 35.1683C84.5027 34.3929 83.418 33.2943 82.6423 31.8726C81.8605 30.4509 81.4727 28.8119 81.4727 26.9555C81.4727 25.099 81.8544 23.4247 82.6241 22.003C83.3937 20.5814 84.4664 19.4887 85.8481 18.7249C87.2298 17.9612 88.8176 17.5735 90.6174 17.5735C92.4173 17.5735 93.9021 17.9436 95.2717 18.6897C96.6413 19.4299 97.7078 20.4874 98.4593 21.8503C99.2168 23.2132 99.5925 24.7818 99.5925 26.556C99.5925 27.2139 99.5501 27.8014 99.4592 28.3243V28.336Z" fill="#010000"/>
<path d="M109.876 18.437C110.827 17.8906 111.918 17.6204 113.148 17.6204V22.4377H111.93C110.482 22.4377 109.391 22.7784 108.658 23.454C107.925 24.1296 107.555 25.3104 107.555 26.9965V36.0436H102.949V17.8847H107.555V20.7046C108.149 19.7411 108.918 18.9892 109.876 18.4428" fill="#010000"/>
<path d="M129.809 24.065C129.36 23.2661 128.767 22.661 128.033 22.2439C127.3 21.8268 126.506 21.6211 125.652 21.6211C124.797 21.6211 124.034 21.8326 123.3 22.2615C122.567 22.6903 121.973 23.3072 121.525 24.1179C121.076 24.9286 120.852 25.8803 120.852 26.9672C120.852 28.054 121.076 29.0116 121.525 29.8223C121.973 30.633 122.567 31.2498 123.3 31.6728C124.034 32.1017 124.815 32.3132 125.652 32.3132C126.488 32.3132 127.3 32.0958 128.033 31.6552C128.767 31.2205 129.36 30.5977 129.809 29.787C130.257 28.9822 130.482 28.0187 130.482 26.9025C130.482 25.7863 130.257 24.864 129.809 24.065ZM123.294 18.4253C124.337 17.8672 125.524 17.5911 126.864 17.5911C128.421 17.5911 129.827 17.9729 131.088 18.7366C132.348 19.5004 133.348 20.5872 134.081 21.9971C134.815 23.4071 135.184 25.0402 135.184 26.8967C135.184 28.7531 134.815 30.398 134.081 31.8314C133.348 33.2649 132.348 34.3693 131.088 35.1624C129.827 35.9496 128.415 36.3432 126.864 36.3432C125.524 36.3432 124.349 36.073 123.331 35.5208C122.313 34.9744 121.482 34.2871 120.846 33.4587V44.703H116.24V17.8789H120.846V20.5049C121.44 19.6766 122.252 18.9834 123.294 18.4253Z" fill="#010000"/>
<path d="M151.037 24.0944C150.601 23.2954 150.007 22.6845 149.262 22.2556C148.516 21.8268 147.716 21.6153 146.862 21.6153C146.007 21.6153 145.22 21.8209 144.492 22.238C143.771 22.6551 143.183 23.2602 142.735 24.0533C142.286 24.8522 142.062 25.7981 142.062 26.8908C142.062 27.9835 142.286 28.9411 142.735 29.7577C143.183 30.5801 143.777 31.2028 144.511 31.6435C145.244 32.0782 146.026 32.3014 146.862 32.3014C147.698 32.3014 148.516 32.0899 149.262 31.6611C150.007 31.2322 150.601 30.6212 151.037 29.8223C151.474 29.0233 151.698 28.0716 151.698 26.9554C151.698 25.8392 151.48 24.8875 151.037 24.0885V24.0944ZM138.456 22.0147C139.19 20.5931 140.19 19.5004 141.45 18.7366C142.711 17.9729 144.123 17.5911 145.674 17.5911C147.032 17.5911 148.219 17.8613 149.244 18.4077C150.262 18.954 151.08 19.6413 151.692 20.4756V17.8848H156.328V36.0436H151.692V33.3883C151.098 34.2401 150.28 34.9451 149.244 35.5032C148.201 36.0613 147.001 36.3374 145.644 36.3374C144.111 36.3374 142.711 35.9438 141.45 35.1565C140.19 34.3693 139.19 33.259 138.456 31.8256C137.723 30.398 137.354 28.7472 137.354 26.8908C137.354 25.0344 137.723 23.4306 138.456 22.0089V22.0147Z" fill="#010000"/>
<path d="M167.351 18.437C168.302 17.8906 169.393 17.6204 170.623 17.6204V22.4377H169.405C167.957 22.4377 166.866 22.7784 166.133 23.454C165.399 24.1296 165.03 25.3104 165.03 26.9965V36.0436H160.424V17.8847H165.03V20.7046C165.623 19.7411 166.393 18.9892 167.351 18.4428" fill="#010000"/>
<path d="M184.914 36.0437L178.733 28.3066V36.0437H174.127V11.7869H178.733V25.5866L184.847 17.8848H190.835L182.811 26.9966L190.902 36.0437H184.914Z" fill="#010000"/>
</svg>
