<svg width="11" height="11" viewBox="0 0 11 11" fill="none" xmlns="http://www.w3.org/2000/svg">
<g clip-path="url(#clip0_1016_609)">
<path d="M0 5.5C0 4.04131 0.579463 2.64236 1.61091 1.61091C2.64236 0.579463 4.04131 0 5.5 0C6.95869 0 8.35764 0.579463 9.38909 1.61091C10.4205 2.64236 11 4.04131 11 5.5C11 6.95869 10.4205 8.35764 9.38909 9.38909C8.35764 10.4205 6.95869 11 5.5 11C4.04131 11 2.64236 10.4205 1.61091 9.38909C0.579463 8.35764 0 6.95869 0 5.5ZM5.15625 0.740438C4.69562 0.880688 4.23844 1.30419 3.85894 2.01575C3.73397 2.25235 3.62643 2.49775 3.53719 2.75H5.15625V0.740438ZM2.81188 2.75C2.92658 2.38485 3.07384 2.03074 3.25188 1.69194C3.37153 1.46762 3.50877 1.25314 3.66231 1.0505C2.8106 1.40392 2.07777 1.99362 1.55031 2.75H2.81188ZM2.41175 5.15625C2.43237 4.55331 2.50662 3.97513 2.62625 3.4375H1.15088C0.895158 3.97746 0.742218 4.56031 0.699875 5.15625H2.41175ZM3.33231 3.4375C3.19709 4.00111 3.11924 4.57696 3.09994 5.15625H5.15625V3.4375H3.33231ZM5.84375 3.4375V5.15625H7.89937C7.8803 4.57699 7.80268 4.00114 7.66769 3.4375H5.84375ZM3.10063 5.84375C3.1197 6.42301 3.19732 6.99886 3.33231 7.5625H5.15625V5.84375H3.10063ZM5.84375 5.84375V7.5625H7.66769C7.79625 7.03656 7.87806 6.457 7.90006 5.84375H5.84375ZM3.53719 8.25C3.63252 8.51583 3.73977 8.76058 3.85894 8.98425C4.23844 9.69581 4.69631 10.1186 5.15625 10.2596V8.25H3.53719ZM3.66231 9.9495C3.50877 9.74686 3.37153 9.53238 3.25188 9.30806C3.07384 8.96926 2.92658 8.61515 2.81188 8.25H1.55031C2.07692 9.00717 2.81001 9.59708 3.66231 9.9495ZM2.62625 7.5625C2.50211 6.99739 2.43031 6.42204 2.41175 5.84375H0.699875C0.7425 6.45562 0.899938 7.03519 1.15088 7.5625H2.62625ZM7.33769 9.9495C8.18999 9.59708 8.92308 9.00717 9.44969 8.25H8.18812C8.07342 8.61515 7.92616 8.96926 7.74813 9.30806C7.62847 9.53238 7.49123 9.74686 7.33769 9.9495ZM5.84375 8.25V10.2596C6.30438 10.1193 6.76156 9.69581 7.14106 8.98425C7.26023 8.76104 7.36748 8.51629 7.46281 8.25H5.84375ZM8.37375 7.5625H9.84913C10.1001 7.03519 10.2575 6.45562 10.3001 5.84375H8.58825C8.56969 6.42204 8.49789 6.99739 8.37375 7.5625ZM10.3001 5.15625C10.2578 4.56031 10.1048 3.97746 9.84913 3.4375H8.37375C8.49338 3.97513 8.56762 4.55331 8.58825 5.15625H10.3001ZM7.74813 1.69194C7.91794 2.01094 8.06575 2.36569 8.18812 2.75H9.44969C8.92308 1.99283 8.18999 1.40292 7.33769 1.0505C7.48756 1.24575 7.62506 1.46162 7.74813 1.69194ZM7.46281 2.75C7.37357 2.49775 7.26603 2.25235 7.14106 2.01575C6.76156 1.30419 6.30438 0.881375 5.84375 0.740438V2.75H7.46281Z" fill="black"/>
</g>
<defs>
<clipPath id="clip0_1016_609">
<rect width="11" height="11" fill="white"/>
</clipPath>
</defs>
</svg>
