<svg width="27" height="27" viewBox="0 0 27 27" fill="none" xmlns="http://www.w3.org/2000/svg">
<path d="M18.0001 0C15.6139 0.00231658 13.3261 0.951272 11.6387 2.6386C9.9514 4.32592 9.00245 6.61376 9.00013 9C9.00105 9.39378 9.02735 9.7871 9.07888 10.1775L0.39013 22.0275C0.105736 22.4121 -0.0306888 22.8863 0.00580645 23.3633C0.0423017 23.8402 0.249278 24.2881 0.58888 24.625L2.37513 26.4112C2.71202 26.7509 3.15991 26.9578 3.63687 26.9943C4.11383 27.0308 4.58799 26.8944 4.97263 26.61L16.8239 17.9188C17.2138 17.9711 17.6067 17.9982 18.0001 18C20.3871 18 22.6763 17.0518 24.3641 15.364C26.0519 13.6761 27.0001 11.3869 27.0001 9C27.0001 6.61305 26.0519 4.32387 24.3641 2.63604C22.6763 0.948211 20.3871 0 18.0001 0ZM25.0001 9C25.0019 10.511 24.5123 11.9816 23.6051 13.19L13.8114 3.395C14.8517 2.61799 16.0877 2.14566 17.3811 2.03084C18.6745 1.91602 19.9744 2.16322 21.1354 2.74481C22.2964 3.3264 23.2727 4.21945 23.9552 5.32411C24.6377 6.42877 24.9995 7.7015 25.0001 9ZM3.79013 25L2.00013 23.21L9.76763 12.625C10.6778 14.6798 12.3203 16.3223 14.3751 17.2325L3.79013 25ZM11.0001 9C10.9981 7.48934 11.4878 6.01907 12.3951 4.81125L22.1876 14.6038C21.1474 15.3803 19.9116 15.8524 18.6185 15.967C17.3254 16.0817 16.0259 15.8345 14.8652 15.2531C13.7044 14.6718 12.7283 13.779 12.0457 12.6748C11.3632 11.5705 11.0012 10.2982 11.0001 9ZM10.7064 16.2925C10.8938 16.48 10.999 16.7343 10.999 16.9994C10.999 17.2645 10.8938 17.5187 10.7064 17.7062L9.70638 18.7062C9.61445 18.803 9.50407 18.8804 9.38176 18.9338C9.25944 18.9873 9.12767 19.0157 8.9942 19.0174C8.86074 19.0191 8.72828 18.9941 8.60464 18.9438C8.481 18.8935 8.36868 18.819 8.2743 18.7246C8.17991 18.6302 8.10538 18.5179 8.05509 18.3942C8.0048 18.2706 7.97977 18.1381 7.98148 18.0047C7.98319 17.8712 8.0116 17.7394 8.06504 17.6171C8.11848 17.4948 8.19586 17.3844 8.29263 17.2925L9.29263 16.2925C9.38544 16.1993 9.49575 16.1252 9.61721 16.0747C9.73868 16.0242 9.86893 15.9981 10.0005 15.998C10.1321 15.9978 10.2624 16.0237 10.3839 16.074C10.5055 16.1243 10.6159 16.1982 10.7089 16.2913L10.7064 16.2925Z" fill="#343330"/>
</svg>
