<svg width="27" height="26" viewBox="0 0 27 26" fill="none" xmlns="http://www.w3.org/2000/svg">
<path d="M26.0002 23.9875H19.9202C22.5693 22.3185 24.5267 19.749 25.4322 16.7517C26.3378 13.7544 26.1306 10.531 24.8488 7.67431C23.567 4.81764 21.2967 2.51989 18.4557 1.20373C15.6147 -0.112419 12.394 -0.358447 9.38602 0.510907C6.37805 1.38026 3.78516 3.30653 2.08431 5.93536C0.383466 8.56419 -0.310939 11.7188 0.128839 14.8188C0.568616 17.9188 2.113 20.7558 4.47788 22.8079C6.84277 24.8599 9.86911 25.989 13.0002 25.9875H26.0002C26.2654 25.9875 26.5198 25.8822 26.7073 25.6946C26.8948 25.5071 27.0002 25.2527 27.0002 24.9875C27.0002 24.7223 26.8948 24.4679 26.7073 24.2804C26.5198 24.0929 26.2654 23.9875 26.0002 23.9875ZM2.00018 12.9875C2.00018 10.8119 2.64532 8.68518 3.85402 6.87623C5.06271 5.06729 6.78068 3.6574 8.79066 2.82483C10.8007 1.99227 13.0124 1.77443 15.1462 2.19887C17.28 2.62331 19.24 3.67096 20.7784 5.20933C22.3167 6.74771 23.3644 8.70772 23.7888 10.8415C24.2133 12.9753 23.9954 15.187 23.1629 17.197C22.3303 19.207 20.9204 20.925 19.1115 22.1337C17.3025 23.3424 15.1758 23.9875 13.0002 23.9875C10.0838 23.9842 7.28784 22.8242 5.22566 20.762C3.16348 18.6998 2.00349 15.9039 2.00018 12.9875ZM13.0002 9.98751C13.5935 9.98751 14.1735 9.81156 14.6669 9.48192C15.1602 9.15227 15.5448 8.68374 15.7718 8.13556C15.9989 7.58738 16.0583 6.98418 15.9425 6.40224C15.8268 5.82029 15.5411 5.28574 15.1215 4.86619C14.7019 4.44663 14.1674 4.16091 13.5855 4.04515C13.0035 3.9294 12.4003 3.98881 11.8521 4.21587C11.304 4.44293 10.8354 4.82745 10.5058 5.3208C10.1761 5.81414 10.0002 6.39416 10.0002 6.98751C10.0002 7.78316 10.3163 8.54622 10.8789 9.10883C11.4415 9.67144 12.2045 9.98751 13.0002 9.98751ZM13.0002 5.98751C13.198 5.98751 13.3913 6.04616 13.5558 6.15604C13.7202 6.26592 13.8484 6.4221 13.9241 6.60482C13.9997 6.78755 14.0196 6.98862 13.981 7.1826C13.9424 7.37658 13.8471 7.55476 13.7073 7.69461C13.5674 7.83447 13.3893 7.92971 13.1953 7.96829C13.0013 8.00688 12.8002 7.98707 12.6175 7.91139C12.4348 7.8357 12.2786 7.70753 12.1687 7.54308C12.0588 7.37863 12.0002 7.18529 12.0002 6.98751C12.0002 6.72229 12.1055 6.46794 12.2931 6.2804C12.4806 6.09286 12.735 5.98751 13.0002 5.98751ZM16.0002 18.9875C16.0002 18.3942 15.8242 17.8141 15.4946 17.3208C15.1649 16.8274 14.6964 16.4429 14.1482 16.2159C13.6001 15.9888 12.9969 15.9294 12.4149 16.0452C11.833 16.1609 11.2984 16.4466 10.8789 16.8662C10.4593 17.2857 10.1736 17.8203 10.0578 18.4022C9.94207 18.9842 10.0015 19.5874 10.2285 20.1356C10.4556 20.6837 10.8401 21.1523 11.3335 21.4819C11.8268 21.8116 12.4068 21.9875 13.0002 21.9875C13.7958 21.9875 14.5589 21.6714 15.1215 21.1088C15.6841 20.5462 16.0002 19.7832 16.0002 18.9875ZM12.0002 18.9875C12.0002 18.7897 12.0588 18.5964 12.1687 18.4319C12.2786 18.2675 12.4348 18.1393 12.6175 18.0636C12.8002 17.9879 13.0013 17.9681 13.1953 18.0067C13.3893 18.0453 13.5674 18.1405 13.7073 18.2804C13.8471 18.4203 13.9424 18.5984 13.981 18.7924C14.0196 18.9864 13.9997 19.1875 13.9241 19.3702C13.8484 19.5529 13.7202 19.7091 13.5558 19.819C13.3913 19.9289 13.198 19.9875 13.0002 19.9875C12.735 19.9875 12.4806 19.8822 12.2931 19.6946C12.1055 19.5071 12.0002 19.2527 12.0002 18.9875ZM19.0002 15.9875C19.5935 15.9875 20.1735 15.8116 20.6669 15.4819C21.1602 15.1523 21.5448 14.6837 21.7718 14.1356C21.9989 13.5874 22.0583 12.9842 21.9425 12.4022C21.8268 11.8203 21.5411 11.2857 21.1215 10.8662C20.7019 10.4466 20.1674 10.1609 19.5855 10.0452C19.0035 9.9294 18.4003 9.98881 17.8521 10.2159C17.304 10.4429 16.8354 10.8274 16.5058 11.3208C16.1761 11.8141 16.0002 12.3942 16.0002 12.9875C16.0002 13.7832 16.3163 14.5462 16.8789 15.1088C17.4415 15.6714 18.2045 15.9875 19.0002 15.9875ZM19.0002 11.9875C19.198 11.9875 19.3913 12.0462 19.5558 12.156C19.7202 12.2659 19.8484 12.4221 19.9241 12.6048C19.9998 12.7875 20.0196 12.9886 19.981 13.1826C19.9424 13.3766 19.8471 13.5548 19.7073 13.6946C19.5674 13.8345 19.3893 13.9297 19.1953 13.9683C19.0013 14.0069 18.8002 13.9871 18.6175 13.9114C18.4348 13.8357 18.2786 13.7075 18.1687 13.5431C18.0588 13.3786 18.0002 13.1853 18.0002 12.9875C18.0002 12.7223 18.1055 12.4679 18.2931 12.2804C18.4806 12.0929 18.735 11.9875 19.0002 11.9875ZM7.00018 9.98751C6.40684 9.98751 5.82682 10.1635 5.33347 10.4931C4.84012 10.8227 4.45561 11.2913 4.22854 11.8395C4.00148 12.3876 3.94207 12.9908 4.05783 13.5728C4.17358 14.1547 4.4593 14.6893 4.87886 15.1088C5.29842 15.5284 5.83297 15.8141 6.41491 15.9299C6.99685 16.0456 7.60005 15.9862 8.14823 15.7591C8.69641 15.5321 9.16495 15.1476 9.49459 14.6542C9.82423 14.1609 10.0002 13.5809 10.0002 12.9875C10.0002 12.1919 9.68411 11.4288 9.1215 10.8662C8.55889 10.3036 7.79583 9.98751 7.00018 9.98751ZM7.00018 13.9875C6.8024 13.9875 6.60906 13.9289 6.44461 13.819C6.28016 13.7091 6.15199 13.5529 6.0763 13.3702C6.00061 13.1875 5.98081 12.9864 6.0194 12.7924C6.05798 12.5984 6.15322 12.4203 6.29308 12.2804C6.43293 12.1405 6.61111 12.0453 6.80509 12.0067C6.99907 11.9681 7.20014 11.9879 7.38287 12.0636C7.56559 12.1393 7.72177 12.2675 7.83165 12.4319C7.94153 12.5964 8.00018 12.7897 8.00018 12.9875C8.00018 13.2527 7.89483 13.5071 7.70729 13.6946C7.51975 13.8822 7.2654 13.9875 7.00018 13.9875Z" fill="#343330"/>
</svg>
