<svg width="22" height="28" viewBox="0 0 22 28" fill="none" xmlns="http://www.w3.org/2000/svg">
<path d="M7.5 13.5C7.20333 13.5 6.91332 13.412 6.66665 13.2472C6.41997 13.0824 6.22771 12.8481 6.11418 12.574C6.00065 12.2999 5.97094 11.9983 6.02882 11.7074C6.0867 11.4164 6.22956 11.1491 6.43934 10.9393C6.64912 10.7296 6.91639 10.5867 7.20736 10.5288C7.49834 10.4709 7.79994 10.5006 8.07403 10.6142C8.34811 10.7277 8.58238 10.92 8.7472 11.1666C8.91203 11.4133 9 11.7033 9 12C9 12.3978 8.84196 12.7794 8.56066 13.0607C8.27936 13.342 7.89782 13.5 7.5 13.5ZM14.5 10.5C14.2033 10.5 13.9133 10.588 13.6666 10.7528C13.42 10.9176 13.2277 11.1519 13.1142 11.426C13.0007 11.7001 12.9709 12.0017 13.0288 12.2926C13.0867 12.5836 13.2296 12.8509 13.4393 13.0607C13.6491 13.2704 13.9164 13.4133 14.2074 13.4712C14.4983 13.5291 14.7999 13.4994 15.074 13.3858C15.3481 13.2723 15.5824 13.08 15.7472 12.8334C15.912 12.5867 16 12.2967 16 12C16 11.6022 15.842 11.2206 15.5607 10.9393C15.2794 10.658 14.8978 10.5 14.5 10.5ZM13.9662 16.1537C13.0756 16.7065 12.0482 16.9994 11 16.9994C9.95177 16.9994 8.92439 16.7065 8.03375 16.1537C7.80931 16.0122 7.53783 15.9656 7.27903 16.0242C7.02023 16.0828 6.79531 16.2418 6.65375 16.4662C6.51219 16.6907 6.46559 16.9622 6.52419 17.221C6.5828 17.4798 6.74181 17.7047 6.96625 17.8463C8.17643 18.6007 9.57393 19.0006 11 19.0006C12.4261 19.0006 13.8236 18.6007 15.0338 17.8463C15.1449 17.7762 15.2411 17.6849 15.317 17.5776C15.3928 17.4703 15.4468 17.3491 15.4758 17.221C15.5048 17.0928 15.5083 16.9602 15.4861 16.8307C15.4639 16.7012 15.4163 16.5774 15.3463 16.4662C15.2762 16.3551 15.1849 16.2589 15.0776 16.183C14.9703 16.1072 14.8491 16.0532 14.721 16.0242C14.5928 15.9952 14.4602 15.9917 14.3307 16.0139C14.2012 16.0361 14.0774 16.0837 13.9662 16.1537ZM22 8V20C21.9992 20.8868 21.7042 21.7483 21.1613 22.4495C20.6185 23.1507 19.8583 23.6521 19 23.875V26C19 26.5304 18.7893 27.0391 18.4142 27.4142C18.0391 27.7893 17.5304 28 17 28H5C4.46957 28 3.96086 27.7893 3.58579 27.4142C3.21071 27.0391 3 26.5304 3 26V23.875C2.14168 23.6521 1.38155 23.1507 0.838673 22.4495C0.295797 21.7483 0.000838437 20.8868 0 20V8C0 6.93913 0.421427 5.92172 1.17157 5.17157C1.92172 4.42143 2.93913 4 4 4H6V2C6 1.46957 6.21071 0.960859 6.58579 0.585786C6.96086 0.210714 7.46957 0 8 0H14C14.5304 0 15.0391 0.210714 15.4142 0.585786C15.7893 0.960859 16 1.46957 16 2V4H18C19.0609 4 20.0783 4.42143 20.8284 5.17157C21.5786 5.92172 22 6.93913 22 8ZM8 4H14V2H8V4ZM17 26V24H5V26H17ZM20 8C20 7.46957 19.7893 6.96086 19.4142 6.58579C19.0391 6.21071 18.5304 6 18 6H4C3.46957 6 2.96086 6.21071 2.58579 6.58579C2.21071 6.96086 2 7.46957 2 8V20C2 20.5304 2.21071 21.0391 2.58579 21.4142C2.96086 21.7893 3.46957 22 4 22H18C18.5304 22 19.0391 21.7893 19.4142 21.4142C19.7893 21.0391 20 20.5304 20 20V8Z" fill="#343330"/>
</svg>
