<svg width="26" height="27" viewBox="0 0 26 27" fill="none" xmlns="http://www.w3.org/2000/svg">
<path d="M26 13C25.996 9.5534 24.6251 6.24911 22.188 3.812C19.7509 1.37488 16.4466 0.00396997 13 0C9.55341 0.00396997 6.24911 1.37488 3.812 3.812C1.37489 6.24911 0.00397162 9.5534 1.64891e-06 13C-0.000273643 13.151 0.0339254 13.3001 0.0999939 13.436C0.166062 13.5718 0.262258 13.6907 0.381252 13.7837C0.386904 13.7898 0.39319 13.7953 0.400002 13.8L12 22.5V25H11C10.7348 25 10.4804 25.1054 10.2929 25.2929C10.1054 25.4804 10 25.7348 10 26C10 26.2652 10.1054 26.5196 10.2929 26.7071C10.4804 26.8946 10.7348 27 11 27H15C15.2652 27 15.5196 26.8946 15.7071 26.7071C15.8946 26.5196 16 26.2652 16 26C16 25.7348 15.8946 25.4804 15.7071 25.2929C15.5196 25.1054 15.2652 25 15 25H14V22.5L25.6 13.8C25.7242 13.7069 25.825 13.5861 25.8944 13.4472C25.9639 13.3084 26 13.1552 26 13ZM23.955 12H18.9788C18.7863 7.25625 17.24 4.19625 15.84 2.375C18.0133 2.95932 19.9558 4.19474 21.4064 5.91532C22.857 7.63589 23.7464 9.75919 23.955 12ZM13 2.25C13.6698 2.84187 14.2538 3.52428 14.735 4.2775C15.6863 5.75 16.8063 8.23375 16.9775 12H9.0225C9.19375 8.23375 10.3138 5.75 11.265 4.2825C11.7459 3.52754 12.3299 2.84344 13 2.25ZM16.3 14L13 19.9412L9.7 14H16.3ZM7.41125 14L9.84875 18.3862L4 14H7.41125ZM18.5888 14H22L16.1513 18.3862L18.5888 14ZM10.16 2.375C8.76 4.19625 7.21375 7.25625 7.02125 12H2.045C2.2536 9.75919 3.14295 7.63589 4.5936 5.91532C6.04424 4.19474 7.98669 2.95932 10.16 2.375Z" fill="#343330"/>
</svg>
