<svg width="26" height="28" viewBox="0 0 26 28" fill="none" xmlns="http://www.w3.org/2000/svg">
<path d="M23.294 14.1699C23.1927 14.1112 23.0815 14.0549 22.9665 13.9999C23.0815 13.9449 23.1927 13.8887 23.294 13.8299C23.8672 13.504 24.3703 13.0679 24.7743 12.5468C25.1783 12.0256 25.4752 11.4297 25.648 10.7934C25.8208 10.157 25.866 9.49275 25.781 8.83885C25.696 8.18495 25.4825 7.55432 25.1528 6.98326C24.8231 6.41221 24.3837 5.91201 23.8599 5.51147C23.336 5.11093 22.7382 4.81795 22.1007 4.64941C21.4632 4.48086 20.7987 4.44008 20.1453 4.52941C19.492 4.61874 18.8628 4.83641 18.294 5.1699C18.1927 5.22865 18.0877 5.2949 17.984 5.36865C17.994 5.24365 18.0002 5.11865 18.0002 4.99365C18.0002 3.66757 17.4734 2.3958 16.5357 1.45812C15.5981 0.520437 14.3263 -0.00634766 13.0002 -0.00634766C11.6741 -0.00634766 10.4024 0.520437 9.46467 1.45812C8.52699 2.3958 8.00021 3.66757 8.00021 4.99365C8.00021 5.11115 8.00021 5.23615 8.01646 5.36865C7.91271 5.2974 7.80771 5.22865 7.70646 5.1699C7.1376 4.83641 6.5084 4.61874 5.85508 4.52941C5.20176 4.44008 4.53722 4.48086 3.89973 4.64941C3.26223 4.81795 2.66437 5.11093 2.14056 5.51147C1.61675 5.91201 1.17735 6.41221 0.847639 6.98326C0.517932 7.55432 0.304436 8.18495 0.219443 8.83885C0.13445 9.49275 0.179639 10.157 0.352407 10.7934C0.525176 11.4297 0.822112 12.0256 1.22612 12.5468C1.63013 13.0679 2.13323 13.504 2.70646 13.8299C2.80771 13.8887 2.91896 13.9449 3.03396 13.9999C2.91896 14.0549 2.80771 14.1112 2.70646 14.1699C2.13323 14.4958 1.63013 14.9319 1.22612 15.453C0.822112 15.9742 0.525176 16.5701 0.352407 17.2064C0.179639 17.8428 0.13445 18.5071 0.219443 19.161C0.304436 19.8149 0.517932 20.4455 0.847639 21.0165C1.17735 21.5876 1.61675 22.0878 2.14056 22.4883C2.66437 22.8889 3.26223 23.1819 3.89973 23.3504C4.53722 23.5189 5.20176 23.5597 5.85508 23.4704C6.5084 23.3811 7.1376 23.1634 7.70646 22.8299C7.80771 22.7712 7.91271 22.7049 8.01646 22.6312C8.00646 22.7562 8.00021 22.8812 8.00021 22.9999C8.00021 24.326 8.52699 25.5978 9.46467 26.5354C10.4024 27.4731 11.6741 27.9999 13.0002 27.9999C14.3263 27.9999 15.5981 27.4731 16.5357 26.5354C17.4734 25.5978 18.0002 24.326 18.0002 22.9999C18.0002 22.8824 17.994 22.7574 17.984 22.6312C18.0877 22.7024 18.1927 22.7712 18.294 22.8299C19.0514 23.2687 19.9111 23.4998 20.7865 23.4999C21.2263 23.4993 21.6641 23.4413 22.089 23.3274C23.0442 23.0714 23.902 22.5378 24.554 21.7943C25.206 21.0507 25.6228 20.1305 25.7518 19.15C25.8808 18.1695 25.7161 17.1728 25.2786 16.2859C24.8411 15.399 24.1505 14.6618 23.294 14.1674V14.1699ZM10.0002 13.9999C10.0002 13.4066 10.1762 12.8265 10.5058 12.3332C10.8354 11.8398 11.304 11.4553 11.8522 11.2283C12.4003 11.0012 13.0035 10.9418 13.5855 11.0575C14.1674 11.1733 14.702 11.459 15.1215 11.8786C15.5411 12.2981 15.8268 12.8327 15.9426 13.4146C16.0583 13.9966 15.9989 14.5998 15.7718 15.148C15.5448 15.6961 15.1603 16.1647 14.6669 16.4943C14.1736 16.824 13.5936 16.9999 13.0002 16.9999C12.2046 16.9999 11.4415 16.6838 10.8789 16.1212C10.3163 15.5586 10.0002 14.7956 10.0002 13.9999ZM19.294 6.90115C19.6351 6.70417 20.0118 6.57632 20.4024 6.5249C20.793 6.47348 21.1899 6.4995 21.5704 6.60147C21.951 6.70344 22.3077 6.87936 22.6203 7.1192C22.9328 7.35904 23.1951 7.65809 23.3921 7.99928C23.5891 8.34047 23.7169 8.71712 23.7683 9.10772C23.8198 9.49832 23.7937 9.89522 23.6918 10.2758C23.5898 10.6563 23.4139 11.0131 23.174 11.3256C22.9342 11.6382 22.6351 11.9004 22.294 12.0974C21.5102 12.5512 19.9677 12.8637 17.899 12.9962C17.6807 11.9378 17.1255 10.9787 16.3165 10.2624C17.4665 8.5349 18.5102 7.3549 19.294 6.90115ZM13.0002 1.9999C13.7959 1.9999 14.5589 2.31597 15.1215 2.87858C15.6841 3.44119 16.0002 4.20425 16.0002 4.9999C16.0002 5.9049 15.5002 7.39865 14.5802 9.2574C13.5548 8.91408 12.4456 8.91408 11.4202 9.2574C10.5002 7.39865 10.0002 5.9049 10.0002 4.9999C10.0002 4.20425 10.3163 3.44119 10.8789 2.87858C11.4415 2.31597 12.2046 1.9999 13.0002 1.9999ZM2.60771 7.9999C2.80463 7.65857 3.06688 7.35938 3.37946 7.11943C3.69204 6.87947 4.04884 6.70345 4.42946 6.60142C4.81009 6.49938 5.20708 6.47333 5.59778 6.52476C5.98847 6.57619 6.3652 6.70409 6.70646 6.90115C7.49021 7.3549 8.53396 8.5349 9.68396 10.2624C8.87422 10.9797 8.31894 11.9402 8.10146 12.9999C6.03271 12.8674 4.49021 12.5549 3.70646 12.1024C3.36463 11.9055 3.065 11.6431 2.82472 11.3302C2.58444 11.0173 2.40822 10.6601 2.30617 10.279C2.20411 9.89798 2.17821 9.50053 2.22995 9.10944C2.28169 8.71836 2.41006 8.34132 2.60771 7.9999ZM6.70646 21.0987C6.01739 21.4965 5.19851 21.6043 4.42997 21.3983C3.66142 21.1924 3.00616 20.6896 2.60833 20.0005C2.21051 19.3115 2.10271 18.4926 2.30865 17.724C2.51458 16.9555 3.01739 16.3002 3.70646 15.9024C4.49021 15.4487 6.03271 15.1362 8.10146 15.0037C8.31969 16.062 8.87491 17.0211 9.68396 17.7374C8.53396 19.4649 7.49021 20.6449 6.70646 21.0987ZM13.0002 25.9999C12.2046 25.9999 11.4415 25.6838 10.8789 25.1212C10.3163 24.5586 10.0002 23.7956 10.0002 22.9999C10.0002 22.0949 10.5002 20.6012 11.4202 18.7424C12.4456 19.0857 13.5548 19.0857 14.5802 18.7424C15.5002 20.6012 16.0002 22.0949 16.0002 22.9999C16.0002 23.7956 15.6841 24.5586 15.1215 25.1212C14.5589 25.6838 13.7959 25.9999 13.0002 25.9999ZM23.3927 19.9999C23.1958 20.3412 22.9335 20.6404 22.621 20.8804C22.3084 21.1203 21.9516 21.2964 21.571 21.3984C21.1903 21.5004 20.7933 21.5265 20.4026 21.475C20.0119 21.4236 19.6352 21.2957 19.294 21.0987C18.5102 20.6449 17.4665 19.4649 16.3165 17.7374C17.1262 17.0201 17.6815 16.0596 17.899 14.9999C19.9677 15.1324 21.5102 15.4449 22.294 15.8974C22.6358 16.0943 22.9354 16.3567 23.1757 16.6696C23.416 16.9825 23.5922 17.3397 23.6942 17.7208C23.7963 18.1018 23.8222 18.4993 23.7705 18.8904C23.7187 19.2814 23.5904 19.6585 23.3927 19.9999Z" fill="#343330"/>
</svg>
