<svg width="30" height="23" viewBox="0 0 30 23" fill="none" xmlns="http://www.w3.org/2000/svg">
<path d="M26.0001 7.1V5C26.0001 3.67392 25.4733 2.40215 24.5357 1.46447C23.598 0.526784 22.3262 0 21.0001 0H9.00013C7.67405 0 6.40228 0.526784 5.4646 1.46447C4.52691 2.40215 4.00013 3.67392 4.00013 5V7.1C2.86984 7.32952 1.85365 7.94273 1.12375 8.83574C0.393849 9.72875 -0.00488281 10.8466 -0.00488281 12C-0.00488281 13.1534 0.393849 14.2712 1.12375 15.1643C1.85365 16.0573 2.86984 16.6705 4.00013 16.9V21C4.00013 21.5304 4.21084 22.0391 4.58592 22.4142C4.96099 22.7893 5.4697 23 6.00013 23H24.0001C24.5306 23 25.0393 22.7893 25.4143 22.4142C25.7894 22.0391 26.0001 21.5304 26.0001 21V16.9C27.1304 16.6705 28.1466 16.0573 28.8765 15.1643C29.6064 14.2712 30.0051 13.1534 30.0051 12C30.0051 10.8466 29.6064 9.72875 28.8765 8.83574C28.1466 7.94273 27.1304 7.32952 26.0001 7.1ZM9.00013 2H21.0001C21.7958 2 22.5588 2.31607 23.1215 2.87868C23.6841 3.44129 24.0001 4.20435 24.0001 5V7.1C22.8715 7.33205 21.8574 7.94613 21.1288 8.8387C20.4002 9.73128 20.0015 10.8478 20.0001 12H10.0001C9.99872 10.8478 9.6001 9.73128 8.87147 8.8387C8.14283 7.94613 7.12874 7.33205 6.00013 7.1V5C6.00013 4.20435 6.3162 3.44129 6.87881 2.87868C7.44142 2.31607 8.20448 2 9.00013 2ZM25.0489 15H25.0001C24.7349 15 24.4806 15.1054 24.293 15.2929C24.1055 15.4804 24.0001 15.7348 24.0001 16V21H6.00013V16C6.00013 15.7348 5.89477 15.4804 5.70724 15.2929C5.5197 15.1054 5.26535 15 5.00013 15H4.95138C4.36021 14.9904 3.78505 14.8063 3.29816 14.4709C2.81127 14.1355 2.43435 13.6636 2.21474 13.1147C1.99514 12.5657 1.94264 11.9641 2.06384 11.3854C2.18504 10.8067 2.47454 10.2767 2.89597 9.86205C3.31741 9.44735 3.85198 9.16643 4.43256 9.05457C5.01313 8.94272 5.61381 9.0049 6.15916 9.23333C6.7045 9.46175 7.17019 9.84623 7.49773 10.3385C7.82527 10.8307 8.00005 11.4087 8.00013 12V17C8.00013 17.2652 8.10549 17.5196 8.29302 17.7071C8.48056 17.8946 8.73491 18 9.00013 18C9.26535 18 9.5197 17.8946 9.70724 17.7071C9.89477 17.5196 10.0001 17.2652 10.0001 17V14H20.0001V17C20.0001 17.2652 20.1055 17.5196 20.293 17.7071C20.4806 17.8946 20.7349 18 21.0001 18C21.2653 18 21.5197 17.8946 21.7072 17.7071C21.8948 17.5196 22.0001 17.2652 22.0001 17V12C22.0002 11.4087 22.175 10.8307 22.5025 10.3385C22.8301 9.84623 23.2958 9.46175 23.8411 9.23333C24.3864 9.0049 24.9871 8.94272 25.5677 9.05457C26.1483 9.16643 26.6828 9.44735 27.1043 9.86205C27.5257 10.2767 27.8152 10.8067 27.9364 11.3854C28.0576 11.9641 28.0051 12.5657 27.7855 13.1147C27.5659 13.6636 27.189 14.1355 26.7021 14.4709C26.2152 14.8063 25.6401 14.9904 25.0489 15Z" fill="#343330"/>
</svg>
