<svg width="29" height="34" viewBox="0 0 29 34" fill="none" xmlns="http://www.w3.org/2000/svg">
<g clip-path="url(#clip0_2102_1027)">
<path d="M1.04864 18.8475C0.617541 18.8475 0.221398 18.5927 0.0699318 18.1641C-0.12814 17.6196 0.139839 17.0288 0.687449 16.8203C3.75173 15.685 11.127 12.2097 13.4922 4.26288C13.6204 3.82268 14.0281 3.52148 14.4942 3.52148C14.9602 3.52148 15.368 3.82268 15.4962 4.26288C17.8731 12.2097 25.2483 15.6966 28.301 16.8203C28.8486 17.0172 29.1165 17.6196 28.9185 18.1641C28.7204 18.7085 28.1145 18.975 27.5669 18.778C21.4966 16.5307 16.8594 12.4993 14.4825 7.47174C12.1057 12.4993 7.46849 16.5307 1.39818 18.778C1.28166 18.8244 1.1535 18.8475 1.03699 18.8475H1.04864Z" fill="#343330"/>
<path d="M1.80601 34.0002C1.49143 34.0002 1.1885 33.8612 0.990425 33.6063C0.745749 33.2935 0.687492 32.8765 0.862261 32.5174C2.0973 29.8877 2.66821 26.424 2.70316 21.3733C1.15354 20.9215 0.0117188 19.4966 0.0117188 17.8053C0.0117188 17.2261 0.477769 16.7627 1.06033 16.7627C1.6429 16.7627 2.10895 17.2261 2.10895 17.8053C2.10895 18.7089 2.84298 19.4387 3.75178 19.4387C4.66057 19.4387 5.3946 18.7089 5.3946 17.8053C5.3946 17.2261 5.86065 16.7627 6.44322 16.7627C7.02578 16.7627 7.49183 17.2261 7.49183 17.8053C7.49183 18.7089 8.22586 19.4387 9.13466 19.4387C10.0435 19.4387 10.7775 18.7089 10.7775 17.8053C10.7775 17.2261 11.2435 16.7627 11.8261 16.7627C12.4087 16.7627 12.8747 17.2261 12.8747 17.8053C12.8747 18.6973 13.5971 19.4271 14.4942 19.4387C14.5059 19.4387 14.5175 19.4387 14.5292 19.4387C15.4263 19.4387 16.1487 18.6973 16.1487 17.8053C16.1487 17.2261 16.6148 16.7627 17.1973 16.7627C17.7799 16.7627 18.2459 17.2261 18.2459 17.8053C18.2459 18.7089 18.98 19.4387 19.8888 19.4387C20.7976 19.4387 21.5316 18.7089 21.5316 17.8053C21.5316 17.2261 21.9977 16.7627 22.5802 16.7627C23.1628 16.7627 23.6288 17.2261 23.6288 17.8053C23.6288 18.7089 24.3629 19.4387 25.2717 19.4387C26.1805 19.4387 26.9145 18.7089 26.9145 17.8053C26.9145 17.2261 27.3805 16.7627 27.9631 16.7627C28.5457 16.7627 29.0117 17.2261 29.0117 17.8053C29.0117 19.8557 27.3339 21.5239 25.2717 21.5239C24.2114 21.5239 23.256 21.0836 22.5802 20.3886C21.9044 21.0952 20.949 21.5239 19.8888 21.5239C18.8285 21.5239 17.8848 21.0836 17.1973 20.3886C16.673 20.9215 15.9856 21.3038 15.2283 21.4543C12.2106 28.1848 7.30541 32.8533 2.03904 33.977C1.96913 33.9886 1.88757 34.0002 1.81766 34.0002H1.80601ZM4.78874 21.3733C4.76544 25.532 4.38094 28.7177 3.57701 31.2894C6.72285 29.9225 10.3813 26.76 13.0262 21.2111C12.5718 21.0141 12.164 20.7245 11.8145 20.377C11.1387 21.0836 10.1833 21.5123 9.12301 21.5123C8.06274 21.5123 7.10734 21.0721 6.43157 20.377C5.98882 20.8404 5.41791 21.1879 4.78874 21.3617V21.3733Z" fill="#343330"/>
<path d="M27.1937 33.9998C27.1238 33.9998 27.0422 33.9998 26.9723 33.9766C21.5545 32.8066 16.5328 27.918 13.5384 20.8863C13.317 20.3535 13.5617 19.7395 14.0977 19.5194C14.6336 19.2877 15.2511 19.5426 15.4725 20.0754C18.1407 26.331 22.0788 29.8294 25.4344 31.3007C24.5722 28.5436 24.1877 25.0915 24.2226 20.4809C24.2226 19.9017 24.677 19.392 25.2829 19.4499C25.8654 19.4499 26.3315 19.9248 26.3198 20.5041C26.2849 26.0414 26.8558 29.7599 28.1607 32.5402C28.3239 32.8993 28.2773 33.3163 28.0326 33.6291C27.8345 33.884 27.5316 34.023 27.217 34.023L27.1937 33.9998Z" fill="#343330"/>
<path d="M14.4939 5.60717C14.2259 5.60717 13.9696 5.50292 13.7715 5.31757C13.5618 5.12063 13.4453 4.84261 13.4453 4.56458V1.04295C13.4453 0.730172 13.5851 0.42898 13.8415 0.232046C14.0861 0.0351127 14.4124 -0.0459776 14.727 0.0235283C15.2047 0.127787 15.6591 0.232046 16.1018 0.336305C18.5253 0.892353 20.4477 1.33256 22.9644 0.996612C23.4654 0.927106 23.9315 1.21671 24.0946 1.69167C24.2577 2.15504 24.0713 2.67634 23.6402 2.93119C19.8885 5.1438 17.3135 5.44499 14.5638 5.60717C14.5405 5.60717 14.5172 5.60717 14.5056 5.60717H14.4939ZM15.5425 2.35198V3.45249C16.4979 3.3714 17.43 3.23239 18.4204 2.96595C17.5 2.81535 16.5795 2.60683 15.6124 2.37515C15.5891 2.37515 15.5658 2.36356 15.5309 2.35198H15.5425Z" fill="#343330"/>
</g>
<defs>
<clipPath id="clip0_2102_1027">
<rect width="29" height="34" fill="white"/>
</clipPath>
</defs>
</svg>
