<svg width="26" height="25" viewBox="0 0 26 25" fill="none" xmlns="http://www.w3.org/2000/svg">
<path d="M22.0963 3.73626C19.6759 1.33949 16.4063 -0.00348509 13 6.79245e-06H12.8663C9.44167 0.0352424 6.16932 1.42042 3.7602 3.85459C1.35108 6.28875 -0.000181246 9.57524 1.82344e-08 13C1.82344e-08 18.375 3.3225 22.8825 8.67 24.7713C9.27314 24.9839 9.91847 25.0488 10.5519 24.9606C11.1853 24.8724 11.7883 24.6335 12.3104 24.2641C12.8324 23.8948 13.2583 23.4056 13.5523 22.8376C13.8463 22.2697 13.9998 21.6395 14 21C14 20.4696 14.2107 19.9609 14.5858 19.5858C14.9609 19.2107 15.4696 19 16 19H21.7763C22.6836 19.0044 23.5652 18.6983 24.2746 18.1326C24.984 17.5669 25.4786 16.7756 25.6763 15.89C25.8998 14.9059 26.0084 13.8992 26 12.89C25.9873 11.1818 25.6357 9.49317 24.9656 7.92188C24.2955 6.35058 23.3202 4.92789 22.0963 3.73626ZM23.7213 15.45C23.6219 15.8912 23.375 16.2853 23.0214 16.5671C22.6677 16.8489 22.2285 17.0017 21.7763 17H16C14.9391 17 13.9217 17.4214 13.1716 18.1716C12.4214 18.9217 12 19.9391 12 21C11.9995 21.3195 11.9226 21.6342 11.7755 21.9178C11.6285 22.2014 11.4156 22.4456 11.1548 22.63C10.894 22.8145 10.5927 22.9338 10.2764 22.9779C9.95996 23.0221 9.6376 22.9898 9.33625 22.8838C4.81125 21.2875 2 17.5 2 13C1.99985 10.1022 3.14314 7.32143 5.18151 5.26177C7.21987 3.20211 9.98862 2.02997 12.8862 2.00001H12.9987C15.8965 2.01126 18.6737 3.16098 20.7315 5.20121C22.7892 7.24145 23.9627 10.0087 23.9988 12.9063C24.0062 13.7618 23.9148 14.6154 23.7262 15.45H23.7213ZM14.5 6.50001C14.5 6.79668 14.412 7.08669 14.2472 7.33336C14.0824 7.58004 13.8481 7.77229 13.574 7.88583C13.2999 7.99936 12.9983 8.02906 12.7074 7.97118C12.4164 7.91331 12.1491 7.77045 11.9393 7.56067C11.7296 7.35089 11.5867 7.08361 11.5288 6.79264C11.4709 6.50167 11.5006 6.20007 11.6142 5.92598C11.7277 5.65189 11.92 5.41762 12.1666 5.2528C12.4133 5.08798 12.7033 5.00001 13 5.00001C13.3978 5.00001 13.7794 5.15804 14.0607 5.43935C14.342 5.72065 14.5 6.10218 14.5 6.50001ZM9 9.50001C9 9.79668 8.91203 10.0867 8.7472 10.3334C8.58238 10.58 8.34811 10.7723 8.07403 10.8858C7.79994 10.9994 7.49834 11.0291 7.20736 10.9712C6.91639 10.9133 6.64912 10.7704 6.43934 10.5607C6.22956 10.3509 6.0867 10.0836 6.02882 9.79264C5.97094 9.50167 6.00065 9.20007 6.11418 8.92598C6.22771 8.65189 6.41997 8.41762 6.66665 8.2528C6.91332 8.08798 7.20333 8.00001 7.5 8.00001C7.89782 8.00001 8.27936 8.15804 8.56066 8.43935C8.84196 8.72065 9 9.10218 9 9.50001ZM9 16.5C9 16.7967 8.91203 17.0867 8.7472 17.3334C8.58238 17.58 8.34811 17.7723 8.07403 17.8858C7.79994 17.9994 7.49834 18.0291 7.20736 17.9712C6.91639 17.9133 6.64912 17.7704 6.43934 17.5607C6.22956 17.3509 6.0867 17.0836 6.02882 16.7926C5.97094 16.5017 6.00065 16.2001 6.11418 15.926C6.22771 15.6519 6.41997 15.4176 6.66665 15.2528C6.91332 15.088 7.20333 15 7.5 15C7.89782 15 8.27936 15.158 8.56066 15.4393C8.84196 15.7207 9 16.1022 9 16.5ZM20 9.50001C20 9.79668 19.912 10.0867 19.7472 10.3334C19.5824 10.58 19.3481 10.7723 19.074 10.8858C18.7999 10.9994 18.4983 11.0291 18.2074 10.9712C17.9164 10.9133 17.6491 10.7704 17.4393 10.5607C17.2296 10.3509 17.0867 10.0836 17.0288 9.79264C16.9709 9.50167 17.0007 9.20007 17.1142 8.92598C17.2277 8.65189 17.42 8.41762 17.6666 8.2528C17.9133 8.08798 18.2033 8.00001 18.5 8.00001C18.8978 8.00001 19.2794 8.15804 19.5607 8.43935C19.842 8.72065 20 9.10218 20 9.50001Z" fill="#343330"/>
</svg>
