<svg width="26" height="23" viewBox="0 0 26 23" fill="none" xmlns="http://www.w3.org/2000/svg">
<path d="M22.2362 3.8325C21.04 2.62422 19.6172 1.66377 18.0492 1.00613C16.4813 0.348496 14.799 0.00659292 13.0987 0H13C9.55219 0 6.24558 1.36964 3.80761 3.80761C1.36964 6.24558 0 9.55219 0 13V20C0 20.7956 0.316071 21.5587 0.87868 22.1213C1.44129 22.6839 2.20435 23 3 23H5C5.79565 23 6.55871 22.6839 7.12132 22.1213C7.68393 21.5587 8 20.7956 8 20V15C8 14.2044 7.68393 13.4413 7.12132 12.8787C6.55871 12.3161 5.79565 12 5 12H2.045C2.29449 9.267 3.55656 6.72597 5.58346 4.87578C7.61035 3.02558 10.2556 1.99986 13 2H13.0837C15.8167 2.01155 18.4468 3.04338 20.4585 4.89324C22.4702 6.7431 23.7185 9.27762 23.9587 12H21C20.2044 12 19.4413 12.3161 18.8787 12.8787C18.3161 13.4413 18 14.2044 18 15V20C18 20.7956 18.3161 21.5587 18.8787 22.1213C19.4413 22.6839 20.2044 23 21 23H23C23.7956 23 24.5587 22.6839 25.1213 22.1213C25.6839 21.5587 26 20.7956 26 20V13C26.0065 11.2995 25.6774 9.61436 25.0316 8.04124C24.3857 6.46811 23.4358 5.03788 22.2362 3.8325ZM5 14C5.26522 14 5.51957 14.1054 5.70711 14.2929C5.89464 14.4804 6 14.7348 6 15V20C6 20.2652 5.89464 20.5196 5.70711 20.7071C5.51957 20.8946 5.26522 21 5 21H3C2.73478 21 2.48043 20.8946 2.29289 20.7071C2.10536 20.5196 2 20.2652 2 20V14H5ZM24 20C24 20.2652 23.8946 20.5196 23.7071 20.7071C23.5196 20.8946 23.2652 21 23 21H21C20.7348 21 20.4804 20.8946 20.2929 20.7071C20.1054 20.5196 20 20.2652 20 20V15C20 14.7348 20.1054 14.4804 20.2929 14.2929C20.4804 14.1054 20.7348 14 21 14H24V20Z" fill="#343330"/>
</svg>
