<svg width="21" height="21" viewBox="0 0 21 21" fill="none" xmlns="http://www.w3.org/2000/svg">
<path d="M8.17857 0.75C10.1488 0.75 12.0382 1.53265 13.4314 2.92578C14.8245 4.31891 15.6071 6.20839 15.6071 8.17857C15.6071 10.0186 14.9329 11.71 13.8243 13.0129L14.1329 13.3214H15.0357L20.75 19.0357L19.0357 20.75L13.3214 15.0357V14.1329L13.0129 13.8243C11.71 14.9329 10.0186 15.6071 8.17857 15.6071C6.20839 15.6071 4.31891 14.8245 2.92578 13.4314C1.53265 12.0382 0.75 10.1488 0.75 8.17857C0.75 6.20839 1.53265 4.31891 2.92578 2.92578C4.31891 1.53265 6.20839 0.75 8.17857 0.75V0.75ZM8.17857 3.03571C5.32143 3.03571 3.03571 5.32143 3.03571 8.17857C3.03571 11.0357 5.32143 13.3214 8.17857 13.3214C11.0357 13.3214 13.3214 11.0357 13.3214 8.17857C13.3214 5.32143 11.0357 3.03571 8.17857 3.03571Z" fill="#999999"/>
</svg>
